<?xml version="1.0" encoding="UTF-8" standalone="no"?>
<!-- Created with Inkscape (http://www.inkscape.org/) -->

<svg
   xmlns:dc="http://purl.org/dc/elements/1.1/"
   xmlns:cc="http://creativecommons.org/ns#"
   xmlns:rdf="http://www.w3.org/1999/02/22-rdf-syntax-ns#"
   xmlns:svg="http://www.w3.org/2000/svg"
   xmlns="http://www.w3.org/2000/svg"
   xmlns:sodipodi="http://sodipodi.sourceforge.net/DTD/sodipodi-0.dtd"
   xmlns:inkscape="http://www.inkscape.org/namespaces/inkscape"
   width="1000"
   height="400"
   viewBox="0 0 1000 400"
   id="svg2"
   version="1.1"
   inkscape:version="0.91 r13725"
   sodipodi:docname="git-concept.svg">
  <defs
     id="defs4">
    <marker
       inkscape:stockid="Arrow2Mend"
       orient="auto"
       refY="0.0"
       refX="0.0"
       id="marker10914"
       style="overflow:visible;"
       inkscape:isstock="true">
      <path
         id="path10916"
         style="fill-rule:evenodd;stroke-width:0.625;stroke-linejoin:round;stroke:#36c0ff;stroke-opacity:1;fill:#36c0ff;fill-opacity:1"
         d="M 8.7185878,4.0337352 L -2.2072895,0.016013256 L 8.7185884,-4.0017078 C 6.9730900,-1.6296469 6.9831476,1.6157441 8.7185878,4.0337352 z "
         transform="scale(0.6) rotate(180) translate(0,0)" />
    </marker>
    <marker
       inkscape:isstock="true"
       style="overflow:visible;"
       id="marker10554"
       refX="0.0"
       refY="0.0"
       orient="auto"
       inkscape:stockid="Arrow2Mend">
      <path
         transform="scale(0.6) rotate(180) translate(0,0)"
         d="M 8.7185878,4.0337352 L -2.2072895,0.016013256 L 8.7185884,-4.0017078 C 6.9730900,-1.6296469 6.9831476,1.6157441 8.7185878,4.0337352 z "
         style="fill-rule:evenodd;stroke-width:0.625;stroke-linejoin:round;stroke:#36c0ff;stroke-opacity:1;fill:#36c0ff;fill-opacity:1"
         id="path10556" />
    </marker>
    <marker
       inkscape:isstock="true"
       style="overflow:visible;"
       id="marker10448"
       refX="0.0"
       refY="0.0"
       orient="auto"
       inkscape:stockid="Arrow2Mend"
       inkscape:collect="always">
      <path
         transform="scale(0.6) rotate(180) translate(0,0)"
         d="M 8.7185878,4.0337352 L -2.2072895,0.016013256 L 8.7185884,-4.0017078 C 6.9730900,-1.6296469 6.9831476,1.6157441 8.7185878,4.0337352 z "
         style="fill-rule:evenodd;stroke-width:0.625;stroke-linejoin:round;stroke:#36c0ff;stroke-opacity:1;fill:#36c0ff;fill-opacity:1"
         id="path10450" />
    </marker>
    <marker
       inkscape:isstock="true"
       style="overflow:visible;"
       id="marker5275"
       refX="0.0"
       refY="0.0"
       orient="auto"
       inkscape:stockid="Arrow2Mend">
      <path
         transform="scale(0.6) rotate(180) translate(0,0)"
         d="M 8.7185878,4.0337352 L -2.2072895,0.016013256 L 8.7185884,-4.0017078 C 6.9730900,-1.6296469 6.9831476,1.6157441 8.7185878,4.0337352 z "
         style="fill-rule:evenodd;stroke-width:0.625;stroke-linejoin:round;stroke:#36c0ff;stroke-opacity:1;fill:#36c0ff;fill-opacity:1"
         id="path5277" />
    </marker>
    <marker
       inkscape:stockid="Arrow2Mend"
       orient="auto"
       refY="0.0"
       refX="0.0"
       id="marker5167"
       style="overflow:visible;"
       inkscape:isstock="true"
       inkscape:collect="always">
      <path
         id="path5169"
         style="fill-rule:evenodd;stroke-width:0.625;stroke-linejoin:round;stroke:#36c0ff;stroke-opacity:1;fill:#36c0ff;fill-opacity:1"
         d="M 8.7185878,4.0337352 L -2.2072895,0.016013256 L 8.7185884,-4.0017078 C 6.9730900,-1.6296469 6.9831476,1.6157441 8.7185878,4.0337352 z "
         transform="scale(0.6) rotate(180) translate(0,0)" />
    </marker>
    <marker
       inkscape:stockid="Arrow2Mend"
       orient="auto"
       refY="0.0"
       refX="0.0"
       id="Arrow2Mend"
       style="overflow:visible;"
       inkscape:isstock="true">
      <path
         id="path4628"
         style="fill-rule:evenodd;stroke-width:0.625;stroke-linejoin:round;stroke:#ffffff;stroke-opacity:1;fill:#ffffff;fill-opacity:1"
         d="M 8.7185878,4.0337352 L -2.2072895,0.016013256 L 8.7185884,-4.0017078 C 6.9730900,-1.6296469 6.9831476,1.6157441 8.7185878,4.0337352 z "
         transform="scale(0.6) rotate(180) translate(0,0)" />
    </marker>
    <marker
       inkscape:stockid="Arrow2Lend"
       orient="auto"
       refY="0.0"
       refX="0.0"
       id="Arrow2Lend"
       style="overflow:visible;"
       inkscape:isstock="true">
      <path
         id="path4622"
         style="fill-rule:evenodd;stroke-width:0.625;stroke-linejoin:round;stroke:#ffffff;stroke-opacity:1;fill:#ffffff;fill-opacity:1"
         d="M 8.7185878,4.0337352 L -2.2072895,0.016013256 L 8.7185884,-4.0017078 C 6.9730900,-1.6296469 6.9831476,1.6157441 8.7185878,4.0337352 z "
         transform="scale(1.1) rotate(180) translate(1,0)" />
    </marker>
    <inkscape:path-effect
       effect="spiro"
       id="path-effect3356"
       is_visible="true" />
  </defs>
  <sodipodi:namedview
     id="base"
     pagecolor="#323232"
     bordercolor="#666666"
     borderopacity="1.0"
     inkscape:pageopacity="0"
     inkscape:pageshadow="2"
     inkscape:zoom="0.98994949"
     inkscape:cx="315.66096"
     inkscape:cy="130.5672"
     inkscape:document-units="px"
     inkscape:current-layer="layer1"
     showgrid="false"
     inkscape:window-width="1855"
     inkscape:window-height="1056"
     inkscape:window-x="65"
     inkscape:window-y="24"
     inkscape:window-maximized="1"
     units="px"
     fit-margin-top="0"
     fit-margin-left="0"
     fit-margin-right="0"
     fit-margin-bottom="0"
     showguides="true"
     inkscape:guide-bbox="true"
     inkscape:snap-perpendicular="true"
     inkscape:snap-path-clip="true"
     objecttolerance="10000"
     inkscape:snap-path-mask="true"
     guidetolerance="10000">
    <sodipodi:guide
       position="-188.57143,260"
       orientation="1,0"
       id="guide4593" />
    <sodipodi:guide
       position="742.46212,226.27417"
       orientation="0,1"
       id="guide6984" />
    <inkscape:grid
       type="xygrid"
       id="grid8744" />
    <sodipodi:guide
       position="742.46212,226.27417"
       orientation="0,1"
       id="guide10444" />
  </sodipodi:namedview>
  <metadata
     id="metadata7">
    <rdf:RDF>
      <cc:Work
         rdf:about="">
        <dc:format>image/svg+xml</dc:format>
        <dc:type
           rdf:resource="http://purl.org/dc/dcmitype/StillImage" />
        <dc:title />
      </cc:Work>
    </rdf:RDF>
  </metadata>
  <g
     inkscape:groupmode="layer"
     id="layer1"
     inkscape:label="Layer 1">
    <rect
       style="fill:none;fill-opacity:1;stroke:#ffffff;stroke-width:5.00000048;stroke-linejoin:round;stroke-miterlimit:4;stroke-dasharray:4.99999992, 4.99999991999999960;stroke-dashoffset:0;stroke-opacity:0.25098041"
       id="rect3724"
       width="445"
       height="320"
       x="27.5"
       y="27.499998"
       rx="9.2201958"
       ry="10.645999" />
    <text
       xml:space="preserve"
       style="font-style:normal;font-weight:normal;font-size:30px;line-height:125%;font-family:sans-serif;letter-spacing:0px;word-spacing:0px;fill:#ffffff;fill-opacity:0.25098041;stroke:none;stroke-width:1px;stroke-linecap:butt;stroke-linejoin:miter;stroke-opacity:1;"
       x="161.71429"
       y="374.57144"
       id="text4526"
       sodipodi:linespacing="125%"><tspan
         sodipodi:role="line"
         id="tspan4528"
         x="161.71429"
         y="374.57144"
         style="font-size:22.5px;fill:#ffffff;fill-opacity:0.25098041;">Alice' machine</tspan></text>
    <rect
       ry="3.5180211"
       rx="7.1093578"
       y="51.499985"
       x="51.5"
       height="197.00002"
       width="72"
       id="rect4532"
       style="fill:none;fill-opacity:1;stroke:#ffffff;stroke-width:3.00000024;stroke-linejoin:round;stroke-miterlimit:4;stroke-dasharray:3.00000004, 3.00000004;stroke-dashoffset:0;stroke-opacity:1" />
    <text
       xml:space="preserve"
       style="font-style:normal;font-weight:normal;font-size:40px;line-height:125%;font-family:sans-serif;letter-spacing:0px;word-spacing:0px;fill:#000000;fill-opacity:1;stroke:none;stroke-width:1px;stroke-linecap:butt;stroke-linejoin:miter;stroke-opacity:1"
       x="77.14286"
       y="302.85715"
       id="text4534"
       sodipodi:linespacing="125%"><tspan
         sodipodi:role="line"
         id="tspan4536"
         x="77.14286"
         y="302.85715" /></text>
    <text
       xml:space="preserve"
       style="font-style:normal;font-weight:normal;font-size:22.5px;line-height:125%;font-family:sans-serif;letter-spacing:0px;word-spacing:0px;fill:#36c0ff;fill-opacity:1;stroke:none;stroke-width:1px;stroke-linecap:butt;stroke-linejoin:miter;stroke-opacity:1;"
       x="84.861954"
       y="109.75549"
       id="text4526-3"
       sodipodi:linespacing="125%"><tspan
         sodipodi:role="line"
         id="tspan4528-6"
         x="84.861954"
         y="109.75549"
         style="font-style:normal;font-variant:normal;font-weight:normal;font-stretch:normal;font-size:22.5px;font-family:monospace;-inkscape-font-specification:monospace;text-align:center;text-anchor:middle;fill:#36c0ff;fill-opacity:1;">.py</tspan><tspan
         sodipodi:role="line"
         x="84.861954"
         y="137.88049"
         style="font-style:normal;font-variant:normal;font-weight:normal;font-stretch:normal;font-size:22.5px;font-family:monospace;-inkscape-font-specification:monospace;text-align:center;text-anchor:middle;fill:#36c0ff;fill-opacity:1;"
         id="tspan6383">.m</tspan><tspan
         sodipodi:role="line"
         x="84.861954"
         y="166.00549"
         style="font-style:normal;font-variant:normal;font-weight:normal;font-stretch:normal;font-size:22.5px;font-family:monospace;-inkscape-font-specification:monospace;text-align:center;text-anchor:middle;fill:#36c0ff;fill-opacity:1;"
         id="tspan6385">.c</tspan><tspan
         sodipodi:role="line"
         x="84.861954"
         y="194.13049"
         style="font-style:normal;font-variant:normal;font-weight:normal;font-stretch:normal;font-size:22.5px;font-family:monospace;-inkscape-font-specification:monospace;text-align:center;text-anchor:middle;fill:#36c0ff;fill-opacity:1;"
         id="tspan6387">.h</tspan></text>
    <text
       xml:space="preserve"
       style="font-style:normal;font-weight:normal;font-size:22.5px;line-height:125%;font-family:sans-serif;text-align:center;letter-spacing:0px;word-spacing:0px;text-anchor:middle;fill:#ffffff;fill-opacity:1;stroke:none;stroke-width:1px;stroke-linecap:butt;stroke-linejoin:miter;stroke-opacity:1"
       x="88.192001"
       y="277.19482"
       id="text4526-8"
       sodipodi:linespacing="125%"><tspan
         sodipodi:role="line"
         id="tspan4528-9"
         x="88.192001"
         y="277.19482"
         style="font-size:22.5px;text-align:center;text-anchor:middle">working</tspan><tspan
         sodipodi:role="line"
         x="88.192001"
         y="305.31982"
         style="font-size:22.5px;text-align:center;text-anchor:middle"
         id="tspan6393">copy</tspan></text>
    <rect
       ry="3.5180213"
       rx="7.1093578"
       y="51.5"
       x="326.5"
       height="197"
       width="122"
       id="rect4532-6"
       style="fill:none;fill-opacity:1;stroke:#ffffff;stroke-width:2.99999976;stroke-linejoin:round;stroke-miterlimit:4;stroke-dasharray:2.99999998, 2.99999998;stroke-dashoffset:0;stroke-opacity:1" />
    <path
       style="fill:#36c0ff;fill-opacity:1;fill-rule:evenodd;stroke:#36c0ff;stroke-width:2.49999976;stroke-linecap:butt;stroke-linejoin:miter;stroke-miterlimit:4;stroke-dasharray:none;stroke-opacity:1;marker-end:url(#marker5167)"
       d="m 477.34722,173.56714 187.50662,0.20927"
       id="path4595"
       inkscape:connector-curvature="0"
       sodipodi:nodetypes="cc" />
    <text
       xml:space="preserve"
       style="font-style:normal;font-weight:normal;font-size:22.5px;line-height:125%;font-family:sans-serif;text-align:center;letter-spacing:0px;word-spacing:0px;text-anchor:middle;fill:#ffffff;fill-opacity:1;stroke:none;stroke-width:1px;stroke-linecap:butt;stroke-linejoin:miter;stroke-opacity:1"
       x="387.4566"
       y="277.19482"
       id="text4526-8-7"
       sodipodi:linespacing="125%"><tspan
         sodipodi:role="line"
         x="387.4566"
         y="277.19482"
         id="tspan6389">.git</tspan><tspan
         sodipodi:role="line"
         x="387.4566"
         y="305.31982"
         id="tspan6395">local repo</tspan></text>
    <text
       xml:space="preserve"
       style="font-style:normal;font-weight:normal;font-size:25px;line-height:125%;font-family:sans-serif;letter-spacing:0px;word-spacing:0px;fill:#36c0ff;fill-opacity:1;stroke:none;stroke-width:1px;stroke-linecap:butt;stroke-linejoin:miter;stroke-opacity:1"
       x="336.76093"
       y="216.81714"
       id="text4526-8-7-6"
       sodipodi:linespacing="125%"><tspan
         sodipodi:role="line"
         x="336.76093"
         y="216.81714"
         id="tspan5507-4"
         style="font-size:22.5px;fill:#36c0ff;fill-opacity:1">feature-X</tspan></text>
    <text
       sodipodi:linespacing="125%"
       id="text5797"
       y="126.81714"
       x="348.76093"
       style="font-style:normal;font-weight:normal;font-size:22.5px;line-height:125%;font-family:sans-serif;letter-spacing:0px;word-spacing:0px;fill:#ffffff;fill-opacity:1;stroke:none;stroke-width:1px;stroke-linecap:butt;stroke-linejoin:miter;stroke-opacity:1"
       xml:space="preserve"><tspan
         id="tspan5799"
         y="126.81714"
         x="348.76093"
         sodipodi:role="line">master</tspan></text>
    <text
       xml:space="preserve"
       style="font-style:normal;font-weight:normal;font-size:22.5px;line-height:125%;font-family:sans-serif;text-align:center;letter-spacing:0px;word-spacing:0px;text-anchor:middle;fill:#36c0ff;fill-opacity:1;stroke:none;stroke-width:1px;stroke-linecap:butt;stroke-linejoin:miter;stroke-opacity:1"
       x="225.36217"
       y="124.33493"
       id="text4526-8-7-2"
       sodipodi:linespacing="125%"><tspan
         sodipodi:role="line"
         x="225.36217"
         y="124.33493"
         id="tspan5507-1"
         style="font-style:normal;font-variant:normal;font-weight:normal;font-stretch:normal;font-family:monospace;-inkscape-font-specification:monospace;text-align:center;text-anchor:middle">git add</tspan><tspan
         sodipodi:role="line"
         x="225.36217"
         y="152.45993"
         style="font-style:normal;font-variant:normal;font-weight:normal;font-stretch:normal;font-family:monospace;-inkscape-font-specification:monospace;text-align:center;text-anchor:middle"
         id="tspan10912">git commit</tspan></text>
    <text
       xml:space="preserve"
       style="font-style:normal;font-variant:normal;font-weight:normal;font-stretch:normal;font-size:22.5px;line-height:125%;font-family:monospace;-inkscape-font-specification:monospace;letter-spacing:0px;word-spacing:0px;fill:#36c0ff;fill-opacity:1;stroke:none;stroke-width:1px;stroke-linecap:butt;stroke-linejoin:miter;stroke-opacity:1"
       x="144.82491"
       y="225.47264"
       id="text4526-8-7-2-5"
       sodipodi:linespacing="125%"><tspan
         sodipodi:role="line"
         x="144.82491"
         y="225.47264"
         id="tspan5507-1-6">git checkout</tspan></text>
    <rect
       style="fill:none;fill-opacity:1;stroke:#ffffff;stroke-width:3;stroke-linejoin:round;stroke-miterlimit:4;stroke-dasharray:3.00000006, 3.00000006;stroke-dashoffset:0;stroke-opacity:1"
       id="rect6081"
       width="247.00002"
       height="197"
       x="701.5"
       y="51.5"
       rx="7.1093578"
       ry="3.5180213" />
    <text
       sodipodi:linespacing="125%"
       id="text6087"
       y="277.3786"
       x="748.10876"
       style="font-style:normal;font-weight:normal;font-size:25px;line-height:125%;font-family:sans-serif;letter-spacing:0px;word-spacing:0px;fill:#ffffff;fill-opacity:1;stroke:none;stroke-width:1px;stroke-linecap:butt;stroke-linejoin:miter;stroke-opacity:1"
       xml:space="preserve"><tspan
         id="tspan6089"
         y="277.3786"
         x="748.10876"
         sodipodi:role="line">remote repo</tspan></text>
    <rect
       style="fill:none;fill-opacity:1;stroke:#ffffff;stroke-width:5.00000048;stroke-linejoin:round;stroke-miterlimit:4;stroke-dasharray:4.99999989, 4.99999988999999978;stroke-dashoffset:0;stroke-opacity:0.25098041"
       id="rect3724-5"
       width="295"
       height="320"
       x="677.5"
       y="27.5"
       rx="9.2201958"
       ry="10.645999" />
    <text
       sodipodi:linespacing="125%"
       id="text6418"
       y="216.81714"
       x="711.76093"
       style="font-style:normal;font-weight:normal;font-size:25px;line-height:125%;font-family:sans-serif;letter-spacing:0px;word-spacing:0px;fill:#36c0ff;fill-opacity:1;stroke:none;stroke-width:1px;stroke-linecap:butt;stroke-linejoin:miter;stroke-opacity:1;"
       xml:space="preserve"><tspan
         style="font-size:22.5px;fill:#36c0ff;fill-opacity:1;"
         id="tspan6420"
         y="216.81714"
         x="711.76093"
         sodipodi:role="line">feature-X</tspan></text>
    <text
       xml:space="preserve"
       style="font-style:normal;font-weight:normal;font-size:22.5px;line-height:125%;font-family:sans-serif;letter-spacing:0px;word-spacing:0px;fill:#ffffff;fill-opacity:1;stroke:none;stroke-width:1px;stroke-linecap:butt;stroke-linejoin:miter;stroke-opacity:1"
       x="723.76093"
       y="126.81714"
       id="text6428"
       sodipodi:linespacing="125%"><tspan
         sodipodi:role="line"
         x="723.76093"
         y="126.81714"
         id="tspan6430">master</tspan></text>
    <text
       xml:space="preserve"
       style="font-style:normal;font-weight:normal;font-size:25px;line-height:125%;font-family:sans-serif;letter-spacing:0px;word-spacing:0px;fill:#ffffff;fill-opacity:1;stroke:none;stroke-width:1px;stroke-linecap:butt;stroke-linejoin:miter;stroke-opacity:1"
       x="831.76093"
       y="216.81714"
       id="text6438"
       sodipodi:linespacing="125%"><tspan
         sodipodi:role="line"
         x="831.76093"
         y="216.81714"
         id="tspan6440"
         style="font-size:22.5px">feature-Z</tspan></text>
    <text
       sodipodi:linespacing="125%"
       id="text6448"
       y="126.81714"
       x="831.76093"
       style="font-style:normal;font-weight:normal;font-size:22.5px;line-height:125%;font-family:sans-serif;letter-spacing:0px;word-spacing:0px;fill:#ffffff;fill-opacity:1;stroke:none;stroke-width:1px;stroke-linecap:butt;stroke-linejoin:miter;stroke-opacity:1"
       xml:space="preserve"><tspan
         id="tspan6450"
         y="126.81714"
         x="831.76093"
         sodipodi:role="line">feature-Y</tspan></text>
    <text
       sodipodi:linespacing="125%"
       id="text6452"
       y="376.57144"
       x="691.71429"
       style="font-style:normal;font-weight:normal;font-size:30px;line-height:125%;font-family:sans-serif;letter-spacing:0px;word-spacing:0px;fill:#ffffff;fill-opacity:0.25098041;stroke:none;stroke-width:1px;stroke-linecap:butt;stroke-linejoin:miter;stroke-opacity:1;"
       xml:space="preserve"><tspan
         y="376.57144"
         x="691.71429"
         id="tspan6454"
         sodipodi:role="line"
         style="font-size:22.5px;fill:#ffffff;fill-opacity:0.25098041;">github, bitbucket, gitlab</tspan></text>
    <path
       sodipodi:nodetypes="cc"
       inkscape:connector-curvature="0"
       id="path10446"
       d="m 668.23792,185.56714 -187.50663,0.20927"
       style="fill:#36c0ff;fill-opacity:1;fill-rule:evenodd;stroke:#36c0ff;stroke-width:2.49999976;stroke-linecap:butt;stroke-linejoin:miter;stroke-miterlimit:4;stroke-dasharray:none;stroke-opacity:1;marker-end:url(#marker10914)" />
    <path
       sodipodi:nodetypes="cc"
       inkscape:connector-curvature="0"
       id="path10550"
       d="m 132.91987,173.56714 178.2428,0.20927"
       style="fill:#36c0ff;fill-opacity:1;fill-rule:evenodd;stroke:#36c0ff;stroke-width:2.5;stroke-linecap:butt;stroke-linejoin:miter;stroke-miterlimit:4;stroke-dasharray:none;stroke-opacity:1;marker-end:url(#marker10554)" />
    <path
       style="fill:#36c0ff;fill-opacity:1;fill-rule:evenodd;stroke:#36c0ff;stroke-width:2.5;stroke-linecap:butt;stroke-linejoin:miter;stroke-miterlimit:4;stroke-dasharray:none;stroke-opacity:1;marker-end:url(#marker10448)"
       d="m 314.37955,185.56714 -178.24279,0.20927"
       id="path10552"
       inkscape:connector-curvature="0"
       sodipodi:nodetypes="cc" />
    <text
       sodipodi:linespacing="125%"
       id="text10972"
       y="148.33493"
       x="571.36218"
       style="font-style:normal;font-weight:normal;font-size:22.5px;line-height:125%;font-family:sans-serif;text-align:center;letter-spacing:0px;word-spacing:0px;text-anchor:middle;fill:#36c0ff;fill-opacity:1;stroke:none;stroke-width:1px;stroke-linecap:butt;stroke-linejoin:miter;stroke-opacity:1"
       xml:space="preserve"><tspan
         id="tspan10976"
         style="font-style:normal;font-variant:normal;font-weight:normal;font-stretch:normal;font-family:monospace;-inkscape-font-specification:monospace;text-align:center;text-anchor:middle"
         y="148.33493"
         x="571.36218"
         sodipodi:role="line">git push</tspan></text>
    <text
       xml:space="preserve"
       style="font-style:normal;font-weight:normal;font-size:22.5px;line-height:125%;font-family:sans-serif;text-align:center;letter-spacing:0px;word-spacing:0px;text-anchor:middle;fill:#36c0ff;fill-opacity:1;stroke:none;stroke-width:1px;stroke-linecap:butt;stroke-linejoin:miter;stroke-opacity:1"
       x="567.36218"
       y="224.33493"
       id="text10980"
       sodipodi:linespacing="125%"><tspan
         sodipodi:role="line"
         x="567.36218"
         y="224.33493"
         style="font-style:normal;font-variant:normal;font-weight:normal;font-stretch:normal;font-family:monospace;-inkscape-font-specification:monospace;text-align:center;text-anchor:middle"
         id="tspan10982">git pull</tspan></text>
    <path
       inkscape:connector-curvature="0"
       d="m 402.5642,82.989089 c 0,-2.833187 -2.27453,-5.107727 -5.10773,-5.107727 -2.83319,0 -5.10773,2.27454 -5.10773,5.107727 0,1.875501 1.03752,3.511568 2.55387,4.389451 l 0,0.758184 c -0.0399,1.316831 -0.59856,2.513962 -1.59617,3.511556 -0.99761,0.997606 -2.19472,1.556264 -3.51156,1.596172 -2.11492,0.03994 -3.79089,0.39904 -5.10772,1.157224 l 0,-12.130852 c 1.51635,-0.877895 2.55385,-2.513962 2.55385,-4.389462 0,-2.833187 -2.27452,-5.107728 -5.10772,-5.107728 -2.83319,0 -5.10773,2.274541 -5.10773,5.107728 0,1.8755 1.03751,3.511567 2.55387,4.389462 l 0,16.759724 c -1.51636,0.877883 -2.55387,2.513962 -2.55387,4.389452 0,2.8332 2.27454,5.10773 5.10773,5.10773 2.8332,0 5.10772,-2.27453 5.10772,-5.10773 0,-1.35674 -0.51875,-2.55386 -1.35673,-3.471661 0.23942,-0.159618 1.23702,-1.037502 1.51635,-1.19712 0.63846,-0.279329 1.43656,-0.438947 2.39425,-0.438947 2.67357,-0.119711 4.98802,-1.157213 7.02313,-3.192332 2.03511,-2.035107 3.07261,-5.06782 3.19233,-7.701492 l -0.0399,0 c 1.55625,-0.917791 2.59376,-2.553858 2.59376,-4.429359 z m -20.43091,-8.180336 c 1.67597,0 3.07262,1.396634 3.07262,3.072609 0,1.675974 -1.39665,3.07262 -3.07262,3.07262 -1.67598,0 -3.07261,-1.396646 -3.07261,-3.07262 0,-1.675975 1.39663,-3.072609 3.07261,-3.072609 z m 0,31.683867 c -1.67598,0 -3.07261,-1.39664 -3.07261,-3.07262 0,-1.67598 1.39663,-3.07262 3.07261,-3.07262 1.67597,0 3.07262,1.39664 3.07262,3.07262 0,1.67598 -1.39665,3.07262 -3.07262,3.07262 z m 15.32318,-20.430911 c -1.67597,0 -3.07262,-1.396645 -3.07262,-3.07262 0,-1.675975 1.39665,-3.072608 3.07262,-3.072608 1.67597,0 3.07262,1.396633 3.07262,3.072608 0,1.675975 -1.39665,3.07262 -3.07262,3.07262 z"
       id="path11724"
       style="fill:#ffffff" />
    <path
       style="fill:#36c0ff;fill-opacity:1"
       id="path11990"
       d="m 402.5642,170.98909 c 0,-2.83319 -2.27453,-5.10773 -5.10773,-5.10773 -2.83319,0 -5.10773,2.27454 -5.10773,5.10773 0,1.8755 1.03752,3.51157 2.55387,4.38945 l 0,0.75818 c -0.0399,1.31683 -0.59856,2.51397 -1.59617,3.51156 -0.99761,0.99761 -2.19472,1.55626 -3.51156,1.59617 -2.11492,0.0399 -3.79089,0.39904 -5.10772,1.15723 l 0,-12.13086 c 1.51635,-0.87789 2.55385,-2.51396 2.55385,-4.38946 0,-2.83318 -2.27452,-5.10773 -5.10772,-5.10773 -2.83319,0 -5.10773,2.27455 -5.10773,5.10773 0,1.8755 1.03751,3.51157 2.55387,4.38946 l 0,16.75973 c -1.51636,0.87788 -2.55387,2.51396 -2.55387,4.38945 0,2.8332 2.27454,5.10773 5.10773,5.10773 2.8332,0 5.10772,-2.27453 5.10772,-5.10773 0,-1.35674 -0.51875,-2.55386 -1.35673,-3.47166 0.23942,-0.15962 1.23702,-1.0375 1.51635,-1.19712 0.63846,-0.27933 1.43656,-0.43895 2.39425,-0.43895 2.67357,-0.11971 4.98802,-1.15721 7.02313,-3.19233 2.03511,-2.03511 3.07261,-5.06782 3.19233,-7.70149 l -0.0399,0 c 1.55625,-0.91779 2.59376,-2.55386 2.59376,-4.42936 z m -20.43091,-8.18034 c 1.67597,0 3.07262,1.39664 3.07262,3.07261 0,1.67598 -1.39665,3.07262 -3.07262,3.07262 -1.67598,0 -3.07261,-1.39664 -3.07261,-3.07262 0,-1.67597 1.39663,-3.07261 3.07261,-3.07261 z m 0,31.68387 c -1.67598,0 -3.07261,-1.39664 -3.07261,-3.07262 0,-1.67598 1.39663,-3.07262 3.07261,-3.07262 1.67597,0 3.07262,1.39664 3.07262,3.07262 0,1.67598 -1.39665,3.07262 -3.07262,3.07262 z m 15.32318,-20.43091 c -1.67597,0 -3.07262,-1.39665 -3.07262,-3.07262 0,-1.67598 1.39665,-3.07261 3.07262,-3.07261 1.67597,0 3.07262,1.39663 3.07262,3.07261 0,1.67597 -1.39665,3.07262 -3.07262,3.07262 z"
       inkscape:connector-curvature="0" />
    <path
       style="fill:#ffffff"
       id="path12574"
       d="m 778.5642,82.989089 c 0,-2.833187 -2.27453,-5.107727 -5.10773,-5.107727 -2.83319,0 -5.10773,2.27454 -5.10773,5.107727 0,1.875501 1.03752,3.511568 2.55387,4.389451 l 0,0.758184 c -0.0399,1.316831 -0.59856,2.513962 -1.59617,3.511556 -0.99761,0.997606 -2.19472,1.556264 -3.51156,1.596172 -2.11492,0.03994 -3.79089,0.39904 -5.10772,1.157224 l 0,-12.130852 c 1.51635,-0.877895 2.55385,-2.513962 2.55385,-4.389462 0,-2.833187 -2.27452,-5.107728 -5.10772,-5.107728 -2.83319,0 -5.10773,2.274541 -5.10773,5.107728 0,1.8755 1.03751,3.511567 2.55387,4.389462 l 0,16.759724 c -1.51636,0.877883 -2.55387,2.513962 -2.55387,4.389452 0,2.8332 2.27454,5.10773 5.10773,5.10773 2.8332,0 5.10772,-2.27453 5.10772,-5.10773 0,-1.35674 -0.51875,-2.55386 -1.35673,-3.471661 0.23942,-0.159618 1.23702,-1.037502 1.51635,-1.19712 0.63846,-0.279329 1.43656,-0.438947 2.39425,-0.438947 2.67357,-0.119711 4.98802,-1.157213 7.02313,-3.192332 2.03511,-2.035107 3.07261,-5.06782 3.19233,-7.701492 l -0.0399,0 c 1.55625,-0.917791 2.59376,-2.553858 2.59376,-4.429359 z m -20.43091,-8.180336 c 1.67597,0 3.07262,1.396634 3.07262,3.072609 0,1.675974 -1.39665,3.07262 -3.07262,3.07262 -1.67598,0 -3.07261,-1.396646 -3.07261,-3.07262 0,-1.675975 1.39663,-3.072609 3.07261,-3.072609 z m 0,31.683867 c -1.67598,0 -3.07261,-1.39664 -3.07261,-3.07262 0,-1.67598 1.39663,-3.07262 3.07261,-3.07262 1.67597,0 3.07262,1.39664 3.07262,3.07262 0,1.67598 -1.39665,3.07262 -3.07262,3.07262 z m 15.32318,-20.430911 c -1.67597,0 -3.07262,-1.396645 -3.07262,-3.07262 0,-1.675975 1.39665,-3.072608 3.07262,-3.072608 1.67597,0 3.07262,1.396633 3.07262,3.072608 0,1.675975 -1.39665,3.07262 -3.07262,3.07262 z"
       inkscape:connector-curvature="0" />
    <path
       inkscape:connector-curvature="0"
       d="m 778.5642,170.98909 c 0,-2.83319 -2.27453,-5.10773 -5.10773,-5.10773 -2.83319,0 -5.10773,2.27454 -5.10773,5.10773 0,1.8755 1.03752,3.51157 2.55387,4.38945 l 0,0.75818 c -0.0399,1.31683 -0.59856,2.51397 -1.59617,3.51156 -0.99761,0.99761 -2.19472,1.55626 -3.51156,1.59617 -2.11492,0.0399 -3.79089,0.39904 -5.10772,1.15723 l 0,-12.13086 c 1.51635,-0.87789 2.55385,-2.51396 2.55385,-4.38946 0,-2.83318 -2.27452,-5.10773 -5.10772,-5.10773 -2.83319,0 -5.10773,2.27455 -5.10773,5.10773 0,1.8755 1.03751,3.51157 2.55387,4.38946 l 0,16.75973 c -1.51636,0.87788 -2.55387,2.51396 -2.55387,4.38945 0,2.8332 2.27454,5.10773 5.10773,5.10773 2.8332,0 5.10772,-2.27453 5.10772,-5.10773 0,-1.35674 -0.51875,-2.55386 -1.35673,-3.47166 0.23942,-0.15962 1.23702,-1.0375 1.51635,-1.19712 0.63846,-0.27933 1.43656,-0.43895 2.39425,-0.43895 2.67357,-0.11971 4.98802,-1.15721 7.02313,-3.19233 2.03511,-2.03511 3.07261,-5.06782 3.19233,-7.70149 l -0.0399,0 c 1.55625,-0.91779 2.59376,-2.55386 2.59376,-4.42936 z m -20.43091,-8.18034 c 1.67597,0 3.07262,1.39664 3.07262,3.07261 0,1.67598 -1.39665,3.07262 -3.07262,3.07262 -1.67598,0 -3.07261,-1.39664 -3.07261,-3.07262 0,-1.67597 1.39663,-3.07261 3.07261,-3.07261 z m 0,31.68387 c -1.67598,0 -3.07261,-1.39664 -3.07261,-3.07262 0,-1.67598 1.39663,-3.07262 3.07261,-3.07262 1.67597,0 3.07262,1.39664 3.07262,3.07262 0,1.67598 -1.39665,3.07262 -3.07262,3.07262 z m 15.32318,-20.43091 c -1.67597,0 -3.07262,-1.39665 -3.07262,-3.07262 0,-1.67598 1.39665,-3.07261 3.07262,-3.07261 1.67597,0 3.07262,1.39663 3.07262,3.07261 0,1.67597 -1.39665,3.07262 -3.07262,3.07262 z"
       id="path12576"
       style="fill:#36c0ff;fill-opacity:1" />
    <path
       inkscape:connector-curvature="0"
       d="m 898.5642,82.989089 c 0,-2.833187 -2.27453,-5.107727 -5.10773,-5.107727 -2.83319,0 -5.10773,2.27454 -5.10773,5.107727 0,1.875501 1.03752,3.511568 2.55387,4.389451 l 0,0.758184 c -0.0399,1.316831 -0.59856,2.513962 -1.59617,3.511556 -0.99761,0.997606 -2.19472,1.556264 -3.51156,1.596172 -2.11492,0.03994 -3.79089,0.39904 -5.10772,1.157224 l 0,-12.130852 c 1.51635,-0.877895 2.55385,-2.513962 2.55385,-4.389462 0,-2.833187 -2.27452,-5.107728 -5.10772,-5.107728 -2.83319,0 -5.10773,2.274541 -5.10773,5.107728 0,1.8755 1.03751,3.511567 2.55387,4.389462 l 0,16.759724 c -1.51636,0.877883 -2.55387,2.513962 -2.55387,4.389452 0,2.8332 2.27454,5.10773 5.10773,5.10773 2.8332,0 5.10772,-2.27453 5.10772,-5.10773 0,-1.35674 -0.51875,-2.55386 -1.35673,-3.471661 0.23942,-0.159618 1.23702,-1.037502 1.51635,-1.19712 0.63846,-0.279329 1.43656,-0.438947 2.39425,-0.438947 2.67357,-0.119711 4.98802,-1.157213 7.02313,-3.192332 2.03511,-2.035107 3.07261,-5.06782 3.19233,-7.701492 l -0.0399,0 c 1.55625,-0.917791 2.59376,-2.553858 2.59376,-4.429359 z m -20.43091,-8.180336 c 1.67597,0 3.07262,1.396634 3.07262,3.072609 0,1.675974 -1.39665,3.07262 -3.07262,3.07262 -1.67598,0 -3.07261,-1.396646 -3.07261,-3.07262 0,-1.675975 1.39663,-3.072609 3.07261,-3.072609 z m 0,31.683867 c -1.67598,0 -3.07261,-1.39664 -3.07261,-3.07262 0,-1.67598 1.39663,-3.07262 3.07261,-3.07262 1.67597,0 3.07262,1.39664 3.07262,3.07262 0,1.67598 -1.39665,3.07262 -3.07262,3.07262 z m 15.32318,-20.430911 c -1.67597,0 -3.07262,-1.396645 -3.07262,-3.07262 0,-1.675975 1.39665,-3.072608 3.07262,-3.072608 1.67597,0 3.07262,1.396633 3.07262,3.072608 0,1.675975 -1.39665,3.07262 -3.07262,3.07262 z"
       id="path12578"
       style="fill:#ffffff" />
    <path
       style="fill:#ffffff"
       id="path12582"
       d="m 898.5642,172.98909 c 0,-2.83319 -2.27453,-5.10773 -5.10773,-5.10773 -2.83319,0 -5.10773,2.27454 -5.10773,5.10773 0,1.8755 1.03752,3.51157 2.55387,4.38945 l 0,0.75818 c -0.0399,1.31683 -0.59856,2.51397 -1.59617,3.51156 -0.99761,0.99761 -2.19472,1.55626 -3.51156,1.59617 -2.11492,0.0399 -3.79089,0.39904 -5.10772,1.15723 l 0,-12.13086 c 1.51635,-0.87789 2.55385,-2.51396 2.55385,-4.38946 0,-2.83318 -2.27452,-5.10773 -5.10772,-5.10773 -2.83319,0 -5.10773,2.27455 -5.10773,5.10773 0,1.8755 1.03751,3.51157 2.55387,4.38946 l 0,16.75973 c -1.51636,0.87788 -2.55387,2.51396 -2.55387,4.38945 0,2.8332 2.27454,5.10773 5.10773,5.10773 2.8332,0 5.10772,-2.27453 5.10772,-5.10773 0,-1.35674 -0.51875,-2.55386 -1.35673,-3.47166 0.23942,-0.15962 1.23702,-1.0375 1.51635,-1.19712 0.63846,-0.27933 1.43656,-0.43895 2.39425,-0.43895 2.67357,-0.11971 4.98802,-1.15721 7.02313,-3.19233 2.03511,-2.03511 3.07261,-5.06782 3.19233,-7.70149 l -0.0399,0 c 1.55625,-0.91779 2.59376,-2.55386 2.59376,-4.42936 z m -20.43091,-8.18034 c 1.67597,0 3.07262,1.39664 3.07262,3.07261 0,1.67598 -1.39665,3.07262 -3.07262,3.07262 -1.67598,0 -3.07261,-1.39664 -3.07261,-3.07262 0,-1.67597 1.39663,-3.07261 3.07261,-3.07261 z m 0,31.68387 c -1.67598,0 -3.07261,-1.39664 -3.07261,-3.07262 0,-1.67598 1.39663,-3.07262 3.07261,-3.07262 1.67597,0 3.07262,1.39664 3.07262,3.07262 0,1.67598 -1.39665,3.07262 -3.07262,3.07262 z m 15.32318,-20.43091 c -1.67597,0 -3.07262,-1.39665 -3.07262,-3.07262 0,-1.67598 1.39665,-3.07261 3.07262,-3.07261 1.67597,0 3.07262,1.39663 3.07262,3.07261 0,1.67597 -1.39665,3.07262 -3.07262,3.07262 z"
       inkscape:connector-curvature="0" />
  </g>
</svg>
