<svg version="1.2" baseProfile="tiny" width="170" height="165" viewBox="0 0 170 165" preserveAspectRatio="none" xmlns="http://www.w3.org/2000/svg"><path fill="#fff" d="M0 0h170v165H0z"/><circle cx="36" cy="54" r="22" transform="matrix(1.47762 0 0 1.5065 -3.122 -2.435)" fill="none" stroke="#de2c68" stroke-width="1.145"/><circle cx="74" cy="44" r="22" transform="matrix(1.59505 0 0 1.62233 -10.072 -9.178)" fill="none" stroke="#de2c68" stroke-width="1.062"/><circle cx="74" cy="44" r="29" transform="matrix(1.58313 0 0 1.59864 -9.34 -8.136)" fill="none" stroke="#de2c68" stroke-width="5.812"/><path fill="#fc3" d="M42.23 62.951h-7.247l5.798 5.496H29.186v5.495H40.78l-5.798 5.495h7.247l8.696-8.243zm75.284 22.382l-9.095-9.414h19.707v-9.413h-19.707l9.095-9.414h-12.127l-13.644 14.12 13.644 14.121z"/><path d="M12.004 153.578h5.222v-21.511h1.632v-3.296h-1.632v-1.518c0-.607.109-1.215.925-1.258h.707V122.7H15.92c-3.21 0-3.916 1.301-3.916 2.95v3.122h-1.632v3.296h1.632v21.511m8.321-.001h5.222v-20.037c0-.693.054-1.517 1.36-1.517 1.088 0 1.142.824 1.142 1.517v8.197h5.223v-8.544c0-2.602.108-4.727-4.026-4.727-1.414 0-2.829.564-3.59 1.735h-.109v-1.431h-5.222v24.807m22.811-9.758v5.812c0 1.127-.49 1.214-1.25 1.214-.762 0-1.252-.087-1.252-1.214v-7.894h7.725v-9.107c0-2.56-2.503-4.164-6.474-4.164-3.97 0-6.473 1.605-6.473 4.164v17.087c0 2.56 2.502 4.164 6.473 4.164s6.474-1.605 6.474-4.164v-5.898h-5.223m0-4.987h-2.502v-6.116c0-1.127.49-1.214 1.251-1.214.762 0 1.251.087 1.251 1.214v6.116m12.911 14.745v-24.807h-5.222v24.807h5.222m0-30.879h-5.222v4.424h5.222v-4.424m3.343 30.879h5.222v-21.511h1.632v-3.296h-1.632v-1.518c0-.607.108-1.215.924-1.258h.708V122.7h-2.938c-3.21 0-3.917 1.301-3.917 2.95v3.122h-1.632v3.296h1.632v21.511m21.268-24.809h-5.222v20.038c0 .694-.054 1.518-1.36 1.518-1.088 0-1.142-.824-1.142-1.518V128.77H67.71v20.384c0 2.602-.11 4.727 4.025 4.727 1.414 0 2.829-.564 3.59-1.735h.11v1.431h5.221V128.77m2.142 24.808h5.222v-20.037c0-.693.054-1.517 1.36-1.517 1.088 0 1.142.824 1.142 1.517v20.037h5.222v-20.644c0-2.602-.054-4.467-4.025-4.467-1.415 0-2.829.564-3.59 1.735h-.11v-1.431h-5.221v24.807m20.417 0v-13.054h.218l2.883 13.054h5.331l-3.155-13.618 2.992-11.19h-5.222l-2.829 11.407h-.218V122.7h-5.222v30.88h5.222m15.903-.002v-4.814h-5.44v4.814h5.44m2.884 0h5.223v-20.037c0-.693.054-1.517 1.36-1.517 1.087 0 1.142.824 1.142 1.517v20.037h5.222v-20.644c0-2.602-.054-4.467-4.025-4.467-1.415 0-2.83.564-3.59 1.735h-.11v-1.431h-5.222v24.807m22.812-9.758v5.812c0 1.127-.49 1.214-1.251 1.214-.762 0-1.252-.087-1.252-1.214v-7.894h7.725v-9.107c0-2.56-2.502-4.164-6.473-4.164s-6.474 1.605-6.474 4.164v17.087c0 2.56 2.503 4.164 6.474 4.164 3.97 0 6.473-1.605 6.473-4.164v-5.898h-5.222m0-4.987h-2.503v-6.116c0-1.127.49-1.214 1.252-1.214.761 0 1.25.087 1.25 1.214v6.116m13.347-14.529h-5.222v4.467h-1.523v3.296h1.523v18.215c0 .954.707 3.296 3.916 3.296h2.992v-3.296h-.544c-.544 0-1.142-.13-1.142-1.995v-16.22h1.686v-3.296h-1.686v-4.467"/></svg>