<svg xmlns="http://www.w3.org/2000/svg" width="1000" height="400" viewBox="0 0 1000 400"><defs><marker orient="auto" id="b" overflow="visible"><path d="M-5.231-2.42L1.324-.01-5.23 2.401c1.047-1.423 1.041-3.37 0-4.821z" fill-rule="evenodd" stroke-width=".375" stroke-linejoin="round" stroke="#36c0ff" fill="#36c0ff"/></marker><marker id="c" orient="auto" overflow="visible"><path d="M-5.231-2.42L1.324-.01-5.23 2.401c1.047-1.423 1.041-3.37 0-4.821z" fill-rule="evenodd" stroke-width=".375" stroke-linejoin="round" stroke="#36c0ff" fill="#36c0ff"/></marker><marker id="d" orient="auto" overflow="visible"><path d="M-5.231-2.42L1.324-.01-5.23 2.401c1.047-1.423 1.041-3.37 0-4.821z" fill-rule="evenodd" stroke-width=".375" stroke-linejoin="round" stroke="#36c0ff" fill="#36c0ff"/></marker><marker orient="auto" id="a" overflow="visible"><path d="M-5.231-2.42L1.324-.01-5.23 2.401c1.047-1.423 1.041-3.37 0-4.821z" fill-rule="evenodd" stroke-width=".375" stroke-linejoin="round" stroke="#36c0ff" fill="#36c0ff"/></marker></defs><path d="M36.72 27.5h426.56c5.108 0 9.22 4.748 9.22 10.646v298.708c0 5.898-4.112 10.646-9.22 10.646H36.72c-5.108 0-9.22-4.748-9.22-10.646V38.146c0-5.898 4.112-10.646 9.22-10.646z" fill="none" stroke="#fff" stroke-width="5" stroke-linejoin="round" stroke-dasharray="4.99999992,4.99999992" stroke-opacity=".251"/><path d="M168.954 375.714q-.857 2.197-1.67 2.867-.813.67-2.175.67h-1.615v-1.691h1.187q.835 0 1.296-.396.461-.395 1.022-1.867l.362-.923-4.977-12.107h2.143l3.845 9.624 3.845-9.624h2.143l-5.406 13.447zm12.964-12.03q-1.626 0-2.57 1.274-.945 1.264-.945 3.472t.933 3.483q.945 1.263 2.582 1.263 1.615 0 2.56-1.274.945-1.275.945-3.472 0-2.186-.945-3.46-.945-1.286-2.56-1.286zm0-1.714q2.637 0 4.142 1.714 1.505 1.714 1.505 4.746 0 3.021-1.505 4.746-1.505 1.714-4.142 1.714-2.648 0-4.153-1.714-1.494-1.725-1.494-4.746 0-3.032 1.494-4.746 1.505-1.714 4.153-1.714zm8.778 7.745v-7.448h2.022v7.372q0 1.746.68 2.625.682.868 2.044.868 1.637 0 2.582-1.043.956-1.044.956-2.846v-6.976H201v12.304h-2.021v-1.89q-.736 1.121-1.714 1.67-.967.54-2.252.54-2.12-.001-3.22-1.32-1.098-1.318-1.098-3.856zm5.087-7.745zm16.534 2.186q-.34-.197-.747-.285-.395-.1-.879-.1-1.714 0-2.636 1.121-.912 1.11-.912 3.197v6.482h-2.033v-12.304h2.033v1.911q.637-1.12 1.659-1.659 1.021-.549 2.483-.549.208 0 .461.033.253.022.56.077l.011 2.076zm18.886.473q.758-1.362 1.813-2.01 1.054-.649 2.482-.649 1.923 0 2.967 1.351 1.043 1.34 1.043 3.824v7.426h-2.032v-7.36q0-1.77-.626-2.626-.626-.857-1.912-.857-1.57 0-2.483 1.044-.912 1.043-.912 2.845v6.954h-2.032v-7.36q0-1.78-.626-2.626-.627-.857-1.934-.857-1.549 0-2.46 1.055-.913 1.043-.913 2.834v6.954h-2.032v-12.304h2.032v1.911q.692-1.131 1.66-1.67.966-.538 2.295-.538 1.34 0 2.275.681.944.681 1.395 1.978zm17.94 3.757q-2.45 0-3.394.56-.945.56-.945 1.912 0 1.077.703 1.714.714.626 1.934.626 1.68 0 2.691-1.186 1.022-1.198 1.022-3.175v-.45h-2.01zm4.032-.835v7.02h-2.021v-1.867q-.692 1.12-1.725 1.659-1.033.527-2.527.527-1.89 0-3.01-1.055-1.11-1.065-1.11-2.845 0-2.077 1.385-3.131 1.395-1.055 4.153-1.055h2.834v-.198q0-1.395-.923-2.153-.912-.769-2.57-.769-1.055 0-2.055.253-1 .252-1.923.758v-1.868q1.11-.428 2.154-.637 1.043-.22 2.032-.22 2.67 0 3.988 1.384 1.318 1.385 1.318 4.197zm13.03-4.811v1.889q-.857-.473-1.725-.703-.857-.242-1.735-.242-1.967 0-3.055 1.252-1.087 1.242-1.087 3.494 0 2.252 1.087 3.505 1.088 1.241 3.055 1.241.878 0 1.735-.23.868-.242 1.725-.715v1.868q-.846.396-1.758.593-.9.198-1.922.198-2.78 0-4.417-1.747t-1.637-4.713q0-3.01 1.648-4.735 1.66-1.725 4.538-1.725.934 0 1.823.198.89.187 1.725.571zm13.766 4.405v7.426h-2.021v-7.36q0-1.747-.682-2.615-.68-.868-2.043-.868-1.637 0-2.582 1.044-.945 1.043-.945 2.845v6.954h-2.032v-17.094h2.032v6.701q.726-1.11 1.703-1.659.99-.549 2.274-.549 2.12 0 3.208 1.318 1.088 1.308 1.088 3.857zm4.054-4.878h2.022v12.304h-2.022v-12.304zm0-4.79h2.022v2.56h-2.022v-2.56zm16.469 9.668v7.426h-2.022v-7.36q0-1.747-.681-2.615-.681-.868-2.043-.868-1.637 0-2.582 1.044-.945 1.043-.945 2.845v6.954h-2.033v-12.304h2.033v1.911q.725-1.11 1.703-1.659.989-.549 2.274-.549 2.12 0 3.208 1.318 1.088 1.308 1.088 3.857zm14.578.769v.988h-9.294q.132 2.088 1.252 3.187 1.132 1.087 3.143 1.087 1.164 0 2.252-.285 1.098-.286 2.175-.857v1.911q-1.088.462-2.23.703-1.143.242-2.318.242-2.945 0-4.67-1.714-1.713-1.714-1.713-4.636 0-3.021 1.626-4.79 1.637-1.78 4.405-1.78 2.483 0 3.922 1.604 1.45 1.593 1.45 4.34zm-2.021-.594q-.022-1.658-.934-2.647-.9-.989-2.395-.989-1.692 0-2.714.956-1.01.956-1.164 2.691l7.207-.01z" style="line-height:125%" font-weight="400" font-size="22.5" font-family="sans-serif" letter-spacing="0" word-spacing="0" fill="#fff" fill-opacity=".251"/><path d="M58.61 51.5h57.78c3.94 0 7.11 1.569 7.11 3.518v189.964c0 1.949-3.17 3.518-7.11 3.518H58.61c-3.94 0-7.11-1.569-7.11-3.518V55.018c0-1.949 3.17-3.518 7.11-3.518z" fill="none" stroke="#fff" stroke-width="3" stroke-linejoin="round" stroke-dasharray="3.00000004,3.00000004"/><path d="M69.932 106.405H72.7v3.35h-2.768v-3.35zm12.282 1.801v6.23h-2.032V97.45h2.032v1.57q.506-.911 1.34-1.383.847-.484 1.945-.484 2.23 0 3.494 1.725 1.274 1.725 1.274 4.78 0 2.998-1.274 4.712-1.275 1.703-3.494 1.703-1.12 0-1.966-.472-.835-.484-1.319-1.396zm5.933-4.592q0-2.35-.747-3.548-.736-1.198-2.197-1.198-1.473 0-2.23 1.209-.759 1.197-.759 3.537 0 2.33.758 3.538.758 1.208 2.23 1.208 1.462 0 2.198-1.197.747-1.198.747-3.549zm12.909 2.186q-.506 1.286-1.286 3.384-1.087 2.9-1.46 3.538-.506.857-1.264 1.285-.758.429-1.769.429h-1.626v-1.692h1.198q.89 0 1.395-.517.505-.516 1.285-2.67l-4.757-12.106h2.142l3.648 9.624 3.592-9.624h2.143l-3.241 8.35zM76.7 134.53h2.768v3.35h-2.769v-3.35zm15.589-7.702q.373-.79.945-1.164.582-.385 1.395-.385 1.483 0 2.087 1.154.615 1.142.615 4.317v7.13h-1.845v-7.042q0-2.603-.297-3.23-.286-.637-1.055-.637-.878 0-1.208.681-.319.67-.319 3.186v7.042h-1.845v-7.042q0-2.636-.319-3.252-.308-.615-1.12-.615-.803 0-1.121.681-.308.67-.308 3.186v7.042H86.06v-12.304h1.835v1.054q.363-.659.901-1 .55-.35 1.242-.35.834 0 1.384.384.56.384.868 1.164zM76.7 162.655h2.768v3.35h-2.769v-3.35zm19.818 2.725q-.813.472-1.68.702-.857.242-1.758.242-2.857 0-4.472-1.714-1.604-1.714-1.604-4.746 0-3.032 1.604-4.746 1.615-1.714 4.472-1.714.89 0 1.736.23.846.232 1.702.715v2.12q-.802-.714-1.615-1.032-.802-.319-1.823-.319-1.9 0-2.923 1.23-1.021 1.231-1.021 3.516 0 2.274 1.021 3.516 1.033 1.23 2.923 1.23 1.054 0 1.89-.318.834-.33 1.548-1.011v2.098zM76.7 190.78h2.768v3.35h-2.769v-3.35zm19.709-4.274v7.624h-2.033v-7.624q0-1.659-.582-2.439t-1.824-.78q-1.417 0-2.186 1.01-.758 1-.758 2.88v6.953h-2.022v-17.094h2.022v6.636q.538-1.055 1.461-1.594.923-.549 2.186-.549 1.879 0 2.802 1.242.934 1.23.934 3.735z" style="-inkscape-font-specification:monospace;text-align:center" font-weight="400" font-size="22.5" font-family="monospace" letter-spacing="0" word-spacing="0" fill="#36c0ff" text-anchor="middle"/><path d="M44.488 264.89h2.022l2.527 9.602 2.516-9.602h2.384l2.526 9.602 2.516-9.602h2.022l-3.22 12.305h-2.383l-2.648-10.086-2.659 10.086h-2.384l-3.219-12.305zm24.357 1.417q-1.626 0-2.57 1.275-.946 1.263-.946 3.471 0 2.209.934 3.483.945 1.264 2.582 1.264 1.615 0 2.56-1.275.945-1.274.945-3.472 0-2.186-.945-3.46-.945-1.286-2.56-1.286zm0-1.713q2.637 0 4.142 1.713 1.505 1.714 1.505 4.746 0 3.022-1.505 4.747-1.505 1.713-4.142 1.713-2.648 0-4.153-1.713-1.494-1.725-1.494-4.747 0-3.032 1.494-4.746 1.505-1.713 4.153-1.713zm16.117 2.186q-.34-.198-.747-.286-.396-.099-.879-.099-1.714 0-2.637 1.12-.912 1.11-.912 3.198v6.482h-2.032V264.89h2.032v1.912q.638-1.12 1.66-1.66 1.021-.549 2.482-.549.209 0 .462.033.252.022.56.077l.011 2.077zm2.065-6.68h2.033v10.097l6.031-5.307h2.582l-6.526 5.757 6.8 6.548h-2.636l-6.251-6.01v6.01h-2.033V260.1zm13.129 4.79h2.022v12.305h-2.022V264.89zm0-4.79h2.022v2.56h-2.022v-2.56zm16.469 9.668v7.427h-2.022v-7.361q0-1.747-.681-2.615-.681-.868-2.043-.868-1.637 0-2.582 1.044-.945 1.044-.945 2.845v6.955h-2.033V264.89h2.033v1.912q.725-1.11 1.703-1.66.989-.548 2.274-.548 2.12 0 3.208 1.318 1.088 1.307 1.088 3.856zm12.15 1.132q0-2.198-.911-3.406-.901-1.209-2.538-1.209-1.626 0-2.538 1.209-.9 1.208-.9 3.406 0 2.186.9 3.394.912 1.209 2.538 1.209 1.637 0 2.538-1.209.911-1.208.911-3.394zm2.022 4.768q0 3.142-1.395 4.669-1.396 1.538-4.274 1.538-1.066 0-2.01-.165-.945-.154-1.835-.483v-1.967q.89.484 1.758.714.868.231 1.768.231 1.989 0 2.978-1.044.988-1.032.988-3.13v-1q-.626 1.087-1.604 1.625-.977.539-2.34.539-2.263 0-3.647-1.725t-1.384-4.57q0-2.857 1.384-4.582 1.384-1.724 3.647-1.724 1.363 0 2.34.538.978.538 1.604 1.626v-1.868h2.022v10.778zm-58.502 17.82v1.89q-.857-.473-1.725-.704-.857-.242-1.736-.242-1.966 0-3.054 1.253-1.088 1.241-1.088 3.493 0 2.253 1.088 3.505 1.088 1.242 3.054 1.242.879 0 1.736-.231.868-.242 1.725-.714v1.867q-.846.396-1.758.594-.9.197-1.923.197-2.78 0-4.416-1.746-1.637-1.747-1.637-4.714 0-3.01 1.648-4.735 1.659-1.724 4.537-1.724.934 0 1.824.197.89.187 1.725.572zm8.305.944q-1.626 0-2.57 1.275-.945 1.263-.945 3.471 0 2.209.934 3.483.944 1.264 2.581 1.264 1.615 0 2.56-1.275.945-1.274.945-3.472 0-2.186-.945-3.46-.945-1.286-2.56-1.286zm0-1.713q2.637 0 4.142 1.713 1.505 1.714 1.505 4.746 0 3.022-1.505 4.747-1.505 1.713-4.142 1.713-2.647 0-4.152-1.713-1.495-1.725-1.495-4.747 0-3.032 1.495-4.746 1.505-1.713 4.152-1.713zm10.943 10.755V310H89.51v-16.985h2.033v1.868q.637-1.099 1.604-1.626.978-.538 2.329-.538 2.241 0 3.636 1.78 1.407 1.78 1.407 4.68 0 2.9-1.407 4.68-1.395 1.78-3.636 1.78-1.351 0-2.33-.528-.966-.538-1.603-1.637zm6.877-4.296q0-2.23-.923-3.493-.911-1.275-2.515-1.275t-2.527 1.275q-.912 1.263-.912 3.493t.912 3.505q.923 1.264 2.527 1.264t2.515-1.264q.923-1.274.923-3.505zm10.57 7.284q-.858 2.198-1.67 2.868-.814.67-2.176.67h-1.615v-1.692h1.186q.835 0 1.297-.395.461-.396 1.022-1.868l.362-.923-4.977-12.107h2.143l3.845 9.624 3.845-9.624h2.142l-5.405 13.447z" style="text-align:center" font-weight="400" font-size="22.5" font-family="sans-serif" letter-spacing="0" word-spacing="0" text-anchor="middle" fill="#fff"/><path d="M333.61 51.5h107.78c3.94 0 7.11 1.569 7.11 3.518v189.964c0 1.949-3.17 3.518-7.11 3.518H333.61c-3.94 0-7.11-1.569-7.11-3.518V55.018c0-1.949 3.17-3.518 7.11-3.518z" fill="none" stroke="#fff" stroke-width="3" stroke-linejoin="round" stroke-dasharray="2.99999998,2.99999998"/><path d="M477.347 173.567l187.507.21" fill="#36c0ff" fill-rule="evenodd" stroke="#36c0ff" stroke-width="2.5" marker-end="url(#a)"/><path d="M371.603 274.404h2.318v2.79h-2.318v-2.79zm14.975-3.504q0-2.198-.912-3.406-.901-1.209-2.538-1.209-1.626 0-2.538 1.209-.9 1.208-.9 3.406 0 2.186.9 3.394.912 1.209 2.538 1.209 1.637 0 2.538-1.209.912-1.208.912-3.394zm2.021 4.768q0 3.142-1.395 4.669-1.395 1.538-4.274 1.538-1.065 0-2.01-.165-.945-.154-1.835-.483v-1.967q.89.484 1.758.714.868.231 1.769.231 1.988 0 2.977-1.044.989-1.032.989-3.13v-1q-.627 1.087-1.604 1.625-.978.539-2.34.539-2.264 0-3.648-1.725-1.384-1.725-1.384-4.57 0-2.857 1.384-4.582 1.384-1.724 3.648-1.724 1.362 0 2.34.538.977.538 1.604 1.626v-1.868h2.021v10.778zm4.164-10.778h2.021v12.305h-2.021V264.89zm0-4.79h2.021v2.56h-2.021v-2.56zm8.24 1.296v3.494h4.164v1.571h-4.164v6.68q0 1.505.406 1.933.418.429 1.681.429h2.077v1.692h-2.077q-2.34 0-3.23-.868-.89-.879-.89-3.186v-6.68h-1.483v-1.57h1.483v-3.495h2.033zm-66.555 26.829h2.021v17.095h-2.021v-17.095zm11.008 6.207q-1.626 0-2.57 1.275-.946 1.263-.946 3.471 0 2.209.934 3.483.945 1.264 2.582 1.264 1.615 0 2.56-1.275.945-1.274.945-3.472 0-2.186-.945-3.46-.945-1.286-2.56-1.286zm0-1.713q2.637 0 4.142 1.713 1.505 1.714 1.505 4.746 0 3.022-1.505 4.747-1.505 1.713-4.142 1.713-2.648 0-4.153-1.713-1.494-1.725-1.494-4.747 0-3.032 1.494-4.746 1.505-1.713 4.153-1.713zm17.842.769v1.89q-.857-.473-1.725-.704-.857-.242-1.736-.242-1.967 0-3.054 1.253-1.088 1.241-1.088 3.493 0 2.253 1.088 3.505 1.087 1.242 3.054 1.242.879 0 1.736-.231.868-.242 1.725-.714v1.867q-.846.396-1.758.594-.901.197-1.923.197-2.78 0-4.416-1.746-1.637-1.747-1.637-4.714 0-3.01 1.648-4.735 1.659-1.724 4.537-1.724.934 0 1.824.197.89.187 1.725.572zm9.129 5.647q-2.45 0-3.394.56-.945.56-.945 1.911 0 1.077.703 1.714.714.627 1.933.627 1.681 0 2.692-1.187 1.022-1.197 1.022-3.175v-.45h-2.01zm4.032-.835v7.02h-2.021v-1.868q-.692 1.12-1.725 1.66-1.033.526-2.527.526-1.89 0-3.01-1.054-1.11-1.066-1.11-2.846 0-2.076 1.384-3.13 1.396-1.056 4.153-1.056h2.835v-.197q0-1.396-.923-2.154-.912-.769-2.57-.769-1.056 0-2.055.253-1 .253-1.923.758v-1.868q1.11-.428 2.153-.637 1.044-.22 2.033-.22 2.67 0 3.988 1.385 1.318 1.384 1.318 4.197zm4.175-10.075h2.022v17.095h-2.022v-17.095zm20.534 6.68q-.341-.198-.748-.286-.395-.099-.878-.099-1.714 0-2.637 1.12-.912 1.11-.912 3.198v6.482h-2.032v-12.305h2.032v1.912q.637-1.12 1.659-1.66 1.022-.549 2.483-.549.209 0 .461.033.253.022.56.077l.012 2.077zm12.183 3.757v.989h-9.294q.132 2.087 1.252 3.186 1.132 1.088 3.142 1.088 1.165 0 2.253-.286 1.098-.286 2.175-.857v1.912q-1.088.461-2.23.703-1.143.241-2.318.241-2.945 0-4.67-1.713-1.713-1.714-1.713-4.637 0-3.02 1.626-4.79 1.637-1.78 4.405-1.78 2.483 0 3.922 1.605 1.45 1.593 1.45 4.34zm-2.021-.593q-.022-1.66-.934-2.648-.9-.989-2.395-.989-1.692 0-2.714.956-1.01.956-1.164 2.692l7.207-.011zm7.295 5.405V310h-2.033v-16.985h2.033v1.868q.637-1.099 1.604-1.626.978-.538 2.329-.538 2.241 0 3.636 1.78 1.407 1.78 1.407 4.68 0 2.9-1.407 4.68-1.395 1.78-3.636 1.78-1.351 0-2.33-.528-.966-.538-1.603-1.637zm6.877-4.296q0-2.23-.923-3.493-.911-1.275-2.515-1.275t-2.527 1.275q-.912 1.263-.912 3.493t.912 3.505q.923 1.264 2.527 1.264t2.515-1.264q.923-1.274.923-3.505zm10.218-4.746q-1.626 0-2.571 1.275-.945 1.263-.945 3.471 0 2.209.934 3.483.945 1.264 2.582 1.264 1.615 0 2.56-1.275.944-1.274.944-3.472 0-2.186-.945-3.46-.944-1.286-2.56-1.286zm0-1.713q2.636 0 4.141 1.713 1.506 1.714 1.506 4.746 0 3.022-1.506 4.747-1.505 1.713-4.141 1.713-2.648 0-4.153-1.713-1.494-1.725-1.494-4.747 0-3.032 1.494-4.746 1.505-1.713 4.153-1.713z" style="line-height:125%;text-align:center" font-weight="400" font-size="22.5" font-family="sans-serif" letter-spacing="0" word-spacing="0" text-anchor="middle" fill="#fff"/><path d="M345.11 199.722v1.681h-1.933q-1.088 0-1.516.44-.418.44-.418 1.582v1.087h3.33v1.572h-3.33v10.733h-2.032v-10.733h-1.934v-1.572h1.934v-.856q0-2.055.956-2.989.955-.945 3.032-.945h1.912zm12.206 10.438v.988h-9.294q.132 2.088 1.252 3.186 1.132 1.088 3.142 1.088 1.165 0 2.253-.286 1.098-.285 2.175-.857v1.912q-1.088.461-2.23.703-1.143.242-2.318.242-2.945 0-4.67-1.714-1.713-1.714-1.713-4.636 0-3.022 1.626-4.79 1.636-1.78 4.405-1.78 2.483 0 3.922 1.604 1.45 1.593 1.45 4.34zm-2.021-.594q-.022-1.659-.934-2.648-.9-.988-2.395-.988-1.692 0-2.714.956-1.01.955-1.164 2.691l7.207-.01zm10.931 1.066q-2.45 0-3.395.56-.944.56-.944 1.912 0 1.076.703 1.714.714.626 1.933.626 1.681 0 2.692-1.187 1.022-1.197 1.022-3.175v-.45h-2.01zm4.032-.835v7.02h-2.021v-1.868q-.692 1.121-1.725 1.66-1.033.527-2.527.527-1.89 0-3.01-1.055-1.11-1.066-1.11-2.845 0-2.077 1.384-3.132 1.396-1.054 4.153-1.054h2.835v-.198q0-1.395-.923-2.153-.912-.77-2.57-.77-1.056 0-2.055.253-1 .253-1.923.758v-1.867q1.11-.429 2.153-.637 1.044-.22 2.033-.22 2.67 0 3.988 1.384t1.318 4.197zm6.175-8.778v3.493h4.163v1.572h-4.163v6.68q0 1.504.406 1.933.418.428 1.681.428h2.076v1.692h-2.076q-2.34 0-3.23-.868-.89-.879-.89-3.186v-6.68h-1.483v-1.57h1.483v-3.494h2.033zm6.624 10.942v-7.449h2.022v7.372q0 1.747.68 2.626.682.868 2.044.868 1.637 0 2.582-1.044.956-1.043.956-2.845v-6.977h2.021v12.305h-2.021v-1.89q-.736 1.121-1.714 1.67-.967.539-2.252.539-2.12 0-3.22-1.319-1.098-1.318-1.098-3.856zm5.087-7.745zm16.534 2.186q-.34-.198-.747-.286-.395-.098-.879-.098-1.713 0-2.636 1.12-.912 1.11-.912 3.197v6.482h-2.033v-12.305h2.033v1.912q.637-1.12 1.659-1.659 1.022-.55 2.483-.55.208 0 .461.034.253.022.56.077l.011 2.076zm12.184 3.758v.988h-9.294q.132 2.088 1.252 3.186 1.132 1.088 3.142 1.088 1.165 0 2.253-.286 1.098-.285 2.175-.857v1.912q-1.088.461-2.23.703-1.143.242-2.319.242-2.944 0-4.669-1.714-1.714-1.714-1.714-4.636 0-3.022 1.626-4.79 1.637-1.78 4.406-1.78 2.483 0 3.922 1.604 1.45 1.593 1.45 4.34zm-2.021-.594q-.022-1.659-.934-2.648-.901-.988-2.395-.988-1.692 0-2.714.956-1.01.955-1.164 2.691l7.207-.01zm4.317.187h5.922v1.802h-5.922v-1.802zm7.35-9.338h2.384l4.076 6.097 4.098-6.097h2.384l-5.273 7.877 5.625 8.525h-2.384l-4.615-6.976-4.647 6.976h-2.395l5.856-8.756-5.109-7.646z" style="line-height:125%" font-weight="400" font-size="22.5" font-family="sans-serif" letter-spacing="0" word-spacing="0" fill="#36c0ff"/><path d="M360.461 116.875q.758-1.363 1.813-2.011 1.055-.648 2.483-.648 1.923 0 2.966 1.351 1.044 1.34 1.044 3.823v7.427h-2.032v-7.36q0-1.77-.627-2.626-.626-.857-1.911-.857-1.571 0-2.483 1.043-.912 1.044-.912 2.846v6.954h-2.033v-7.36q0-1.78-.626-2.626-.626-.857-1.933-.857-1.55 0-2.461 1.054-.912 1.044-.912 2.835v6.954h-2.033v-12.305h2.033v1.912q.692-1.132 1.659-1.67.967-.538 2.296-.538 1.34 0 2.274.681.945.681 1.395 1.978zm17.941 3.757q-2.45 0-3.395.56-.945.56-.945 1.912 0 1.076.704 1.714.714.626 1.933.626 1.681 0 2.692-1.187 1.022-1.197 1.022-3.175v-.45h-2.011zm4.032-.835v7.02h-2.021v-1.868q-.693 1.121-1.725 1.66-1.033.527-2.527.527-1.89 0-3.01-1.055-1.11-1.066-1.11-2.845 0-2.077 1.384-3.132 1.395-1.054 4.153-1.054h2.835v-.198q0-1.395-.923-2.153-.912-.77-2.571-.77-1.055 0-2.055.253-1 .253-1.922.758v-1.867q1.11-.429 2.153-.637 1.044-.22 2.033-.22 2.67 0 3.988 1.384t1.318 4.197zm12.019-4.922v1.912q-.857-.44-1.78-.66-.923-.22-1.911-.22-1.505 0-2.264.462-.747.462-.747 1.384 0 .704.539 1.11.538.396 2.164.758l.692.154q2.153.461 3.054 1.307.912.835.912 2.34 0 1.714-1.362 2.714-1.351 1-3.724 1-.99 0-2.066-.198-1.066-.187-2.252-.571v-2.088q1.12.583 2.208.88 1.088.285 2.154.285 1.428 0 2.197-.484.769-.494.769-1.384 0-.824-.56-1.263-.55-.44-2.428-.846l-.704-.165q-1.878-.396-2.713-1.208-.835-.824-.835-2.253 0-1.736 1.23-2.68 1.23-.945 3.494-.945 1.12 0 2.11.165.988.164 1.823.494zm5.889-3.856v3.493h4.164v1.572h-4.164v6.68q0 1.504.406 1.933.418.428 1.681.428h2.077v1.692h-2.077q-2.34 0-3.23-.868-.89-.879-.89-3.186v-6.68h-1.483v-1.57h1.483v-3.494h2.033zm17.358 9.141v.988h-9.294q.132 2.088 1.252 3.186 1.132 1.088 3.142 1.088 1.165 0 2.252-.286 1.1-.285 2.176-.857v1.912q-1.088.461-2.23.703-1.143.242-2.319.242-2.944 0-4.669-1.714-1.714-1.714-1.714-4.636 0-3.022 1.626-4.79 1.637-1.78 4.406-1.78 2.483 0 3.922 1.604 1.45 1.593 1.45 4.34zm-2.021-.594q-.022-1.659-.934-2.648-.901-.988-2.395-.988-1.692 0-2.714.955-1.01.956-1.164 2.692l7.207-.01zm12.469-3.164q-.34-.198-.747-.286-.395-.098-.879-.098-1.714 0-2.637 1.12-.911 1.11-.911 3.197v6.482h-2.033v-12.305h2.033v1.912q.637-1.12 1.659-1.659 1.021-.55 2.482-.55.21 0 .462.034.253.022.56.077l.011 2.076z" style="line-height:125%" font-weight="400" font-size="22.5" font-family="sans-serif" letter-spacing="0" word-spacing="0" fill="#fff"/><path d="M187.415 118.084q0-2.274-.747-3.45-.736-1.187-2.153-1.187-1.483 0-2.263 1.187-.78 1.176-.78 3.45t.78 3.471q.79 1.187 2.285 1.187 1.395 0 2.131-1.198.747-1.197.747-3.46zm2.022 5.46q0 2.768-1.308 4.197-1.307 1.428-3.845 1.428-.835 0-1.747-.154-.911-.154-1.823-.45v-2q1.076.506 1.955.747.88.242 1.615.242 1.637 0 2.384-.89.747-.89.747-2.823v-1.462q-.483 1.033-1.318 1.538-.835.506-2.032.506-2.154 0-3.44-1.725-1.285-1.725-1.285-4.614 0-2.9 1.286-4.626 1.285-1.724 3.439-1.724 1.186 0 2.01.472.824.472 1.34 1.461v-1.593h2.022v11.47zm4.9-11.514h5.174v10.734h4.01v1.57H193.48v-1.57h4.01V113.6h-3.153v-1.57zm3.153-4.79h2.021v2.56h-2.021v-2.56zm14.315 1.297v3.493h4.592v1.571h-4.592v6.68q0 1.362.516 1.9.517.539 1.802.539h2.274v1.615h-2.472q-2.274 0-3.208-.912-.933-.912-.933-3.142v-6.68h-3.285v-1.57h3.285v-3.494h2.021zm28.037 9.613h-.67q-1.769 0-2.67.626-.89.615-.89 1.846 0 1.11.67 1.724.67.616 1.857.616 1.67 0 2.626-1.154.956-1.164.967-3.208v-.45h-1.89zm3.922-.835v7.02h-2.032v-1.824q-.648 1.099-1.637 1.626-.978.517-2.384.517-1.879 0-3-1.055-1.12-1.066-1.12-2.846 0-2.054 1.373-3.12 1.385-1.065 4.054-1.065h2.714v-.319q-.011-1.472-.747-2.131-.736-.67-2.351-.67-1.033 0-2.088.296-1.054.297-2.054.868v-2.021q1.12-.429 2.142-.638 1.033-.22 2-.22 1.527 0 2.603.451 1.088.45 1.758 1.351.418.55.593 1.363.176.802.176 2.417zm11.327-3.714v-6.36h2.022v17.094h-2.022v-1.55q-.505.913-1.351 1.396-.835.473-1.934.473-2.23 0-3.515-1.725-1.275-1.736-1.275-4.78 0-2.999 1.286-4.702 1.285-1.713 3.504-1.713 1.11 0 1.956.483.846.472 1.33 1.384zm-5.943 4.593q0 2.35.747 3.548t2.208 1.198q1.461 0 2.22-1.209.768-1.208.768-3.537 0-2.34-.769-3.538-.758-1.209-2.22-1.209-1.46 0-2.207 1.198-.747 1.198-.747 3.549zm19.478-4.593v-6.36h2.022v17.094h-2.022v-1.55q-.505.913-1.351 1.396-.835.473-1.934.473-2.23 0-3.515-1.725-1.275-1.736-1.275-4.78 0-2.999 1.286-4.702 1.285-1.713 3.504-1.713 1.11 0 1.956.483.846.472 1.33 1.384zm-5.943 4.593q0 2.35.747 3.548t2.208 1.198q1.461 0 2.22-1.209.768-1.208.768-3.537 0-2.34-.769-3.538-.758-1.209-2.219-1.209-1.461 0-2.208 1.198-.747 1.198-.747 3.549zm-95.57 28.015q0-2.274-.747-3.45-.737-1.187-2.154-1.187-1.483 0-2.263 1.187-.78 1.176-.78 3.45t.78 3.471q.791 1.187 2.285 1.187 1.395 0 2.132-1.198.747-1.197.747-3.46zm2.021 5.46q0 2.768-1.307 4.197-1.308 1.428-3.845 1.428-.835 0-1.747-.154-.912-.154-1.824-.45v-2q1.077.506 1.956.747.878.242 1.615.242 1.637 0 2.384-.89.747-.89.747-2.823v-1.462q-.484 1.033-1.319 1.538-.835.506-2.032.506-2.153 0-3.439-1.725-1.285-1.725-1.285-4.614 0-2.9 1.285-4.626 1.286-1.724 3.439-1.724 1.186 0 2.01.472.824.472 1.34 1.461V140.2h2.022v11.47zm4.9-11.514h5.175v10.734h4.01v1.57h-10.042v-1.57h4.01v-9.163h-3.153v-1.57zm3.153-4.79h2.022v2.56h-2.022v-2.56zm14.315 1.297v3.493h4.593v1.571h-4.593v6.68q0 1.362.517 1.9.516.539 1.801.539h2.275v1.615h-2.472q-2.275 0-3.208-.912-.934-.912-.934-3.142v-6.68h-3.285v-1.57h3.285v-3.494h2.021zm31.982 15.172q-.813.472-1.681.703-.857.242-1.758.242-2.857 0-4.472-1.714-1.604-1.714-1.604-4.746 0-3.033 1.604-4.747 1.615-1.713 4.472-1.713.89 0 1.736.23.846.231 1.703.714v2.12q-.803-.713-1.615-1.032-.802-.319-1.824-.319-1.9 0-2.923 1.23-1.021 1.231-1.021 3.517 0 2.274 1.021 3.515 1.033 1.23 2.923 1.23 1.054 0 1.89-.318.834-.33 1.549-1.01v2.098zm8.646-10.262q-1.538 0-2.33 1.198-.79 1.197-.79 3.549 0 2.34.79 3.548.792 1.198 2.33 1.198 1.549 0 2.34-1.198.79-1.208.79-3.548 0-2.351-.79-3.549-.791-1.198-2.34-1.198zm0-1.713q2.56 0 3.91 1.659 1.363 1.658 1.363 4.8 0 3.154-1.351 4.813-1.351 1.648-3.922 1.648-2.56 0-3.911-1.648-1.352-1.66-1.352-4.812 0-3.143 1.352-4.801 1.35-1.66 3.91-1.66zm14.194 1.549q.374-.791.945-1.165.582-.384 1.395-.384 1.483 0 2.088 1.153.615 1.143.615 4.318v7.13h-1.846v-7.042q0-2.604-.297-3.23-.285-.637-1.054-.637-.88 0-1.209.68-.318.67-.318 3.187v7.042h-1.846v-7.042q0-2.637-.319-3.252-.307-.615-1.12-.615-.802 0-1.12.68-.308.67-.308 3.187v7.042h-1.835v-12.305h1.835v1.055q.362-.66.9-1 .55-.351 1.242-.351.835 0 1.384.384.56.385.868 1.165zm13.536 0q.373-.791.944-1.165.582-.384 1.395-.384 1.483 0 2.088 1.153.615 1.143.615 4.318v7.13h-1.846v-7.042q0-2.604-.296-3.23-.286-.637-1.055-.637-.879 0-1.209.68-.318.67-.318 3.187v7.042h-1.846v-7.042q0-2.637-.318-3.252-.308-.615-1.121-.615-.802 0-1.12.68-.308.67-.308 3.187v7.042h-1.835v-12.305h1.835v1.055q.362-.66.9-1 .55-.351 1.242-.351.835 0 1.384.384.56.385.868 1.165zm8.92-1.253h5.175v10.734h4.01v1.57h-10.042v-1.57h4.01v-9.163h-3.153v-1.57zm3.153-4.79h2.022v2.56h-2.022v-2.56zm14.315 1.297v3.493h4.593v1.571h-4.593v6.68q0 1.362.517 1.9.516.539 1.802.539h2.274v1.615h-2.472q-2.274 0-3.208-.912-.934-.912-.934-3.142v-6.68h-3.285v-1.57h3.285v-3.494h2.021z" style="-inkscape-font-specification:monospace;text-align:center" font-weight="400" font-size="22.5" font-family="monospace" letter-spacing="0" word-spacing="0" text-anchor="middle" fill="#36c0ff"/><path d="M154.251 219.221q0-2.274-.747-3.45-.736-1.186-2.153-1.186-1.483 0-2.263 1.187-.78 1.175-.78 3.45 0 2.274.78 3.471.79 1.187 2.285 1.187 1.395 0 2.131-1.198.747-1.197.747-3.46zm2.022 5.46q0 2.77-1.308 4.197-1.307 1.429-3.845 1.429-.835 0-1.747-.154-.912-.154-1.823-.45v-2q1.076.505 1.955.747t1.615.242q1.637 0 2.384-.89.747-.89.747-2.824v-1.461q-.483 1.033-1.318 1.538-.835.506-2.033.506-2.153 0-3.438-1.725-1.286-1.725-1.286-4.615 0-2.9 1.286-4.625 1.285-1.725 3.438-1.725 1.187 0 2.01.473.825.472 1.341 1.46v-1.592h2.022v11.47zm4.9-11.513h5.174v10.734h4.01v1.57h-10.041v-1.57h4.01v-9.163h-3.153v-1.571zm3.153-4.79h2.021v2.56h-2.021v-2.56zm14.314 1.296v3.494h4.593v1.571h-4.592v6.68q0 1.362.516 1.9.517.539 1.802.539h2.274v1.615h-2.472q-2.274 0-3.208-.912-.934-.912-.934-3.142v-6.68h-3.285v-1.571h3.285v-3.494h2.022zm31.982 15.172q-.813.473-1.68.704-.858.241-1.759.241-2.856 0-4.471-1.714-1.604-1.713-1.604-4.746 0-3.032 1.604-4.746 1.615-1.714 4.471-1.714.89 0 1.736.231.846.23 1.703.714v2.12q-.802-.714-1.615-1.032-.802-.319-1.824-.319-1.9 0-2.922 1.23-1.022 1.231-1.022 3.516 0 2.274 1.022 3.516 1.033 1.23 2.922 1.23 1.055 0 1.89-.318.835-.33 1.549-1.011v2.098zm13.425-6.998v7.625h-2.032v-7.625q0-1.659-.582-2.439-.583-.78-1.824-.78-1.417 0-2.186 1.01-.758 1-.758 2.88v6.954h-2.022v-17.095h2.022v6.636q.538-1.055 1.46-1.593.924-.55 2.187-.55 1.879 0 2.801 1.242.934 1.23.934 3.735zm14.206.967v.989h-8.756v.066q0 2.01 1.043 3.109 1.055 1.098 2.967 1.098.966 0 2.021-.307 1.055-.308 2.252-.934v2.01q-1.153.473-2.23.704-1.066.241-2.065.241-2.868 0-4.483-1.714-1.615-1.724-1.615-4.746 0-2.944 1.582-4.702t4.219-1.758q2.351 0 3.702 1.593 1.363 1.593 1.363 4.35zm-2.022-.593q-.044-1.78-.846-2.703-.79-.934-2.285-.934-1.461 0-2.406.967-.945.967-1.12 2.68l6.657-.01zm14.996 6.624q-.812.473-1.68.704-.857.241-1.758.241-2.857 0-4.472-1.714-1.604-1.713-1.604-4.746 0-3.032 1.604-4.746 1.615-1.714 4.472-1.714.89 0 1.736.231.846.23 1.702.714v2.12q-.802-.714-1.615-1.032-.802-.319-1.823-.319-1.9 0-2.923 1.23-1.021 1.231-1.021 3.516 0 2.274 1.021 3.516 1.033 1.23 2.923 1.23 1.054 0 1.89-.318.834-.33 1.548-1.011v2.098zm4.472-16.468h2.087v9.899l5.307-5.109h2.46l-4.844 4.636 5.603 7.669h-2.472l-4.549-6.35-1.505 1.417v4.933H255.7v-17.095zm17.71 6.207q-1.538 0-2.33 1.198-.79 1.197-.79 3.548 0 2.34.79 3.549.792 1.197 2.33 1.197 1.549 0 2.34-1.197.791-1.209.791-3.549 0-2.35-.791-3.548t-2.34-1.198zm0-1.714q2.56 0 3.911 1.66 1.362 1.658 1.362 4.8 0 3.153-1.351 4.812-1.351 1.648-3.922 1.648-2.56 0-3.911-1.648-1.352-1.659-1.352-4.812 0-3.142 1.352-4.8 1.351-1.66 3.91-1.66zm8.91 7.943v-7.624h2.021v7.624q0 1.66.583 2.44.593.78 1.823.78 1.429 0 2.187-1 .758-1.011.758-2.89v-6.954h2.032v12.283h-2.032v-1.846q-.539 1.066-1.473 1.615-.922.55-2.164.55-1.89 0-2.812-1.231-.923-1.242-.923-3.747zm18.138-11.14v3.494h4.593v1.571h-4.593v6.68q0 1.362.517 1.9.516.539 1.801.539h2.275v1.615h-2.472q-2.275 0-3.208-.912-.934-.912-.934-3.142v-6.68h-3.285v-1.571h3.285v-3.494h2.021z" style="line-height:125%;-inkscape-font-specification:monospace" font-weight="400" font-size="22.5" font-family="monospace" letter-spacing="0" word-spacing="0" fill="#36c0ff"/><path d="M708.61 51.5h232.78c3.94 0 7.11 1.569 7.11 3.518v189.964c0 1.949-3.17 3.518-7.11 3.518H708.61c-3.94 0-7.11-1.569-7.11-3.518V55.018c0-1.949 3.17-3.518 7.11-3.518z" fill="none" stroke="#fff" stroke-width="3" stroke-linejoin="round" stroke-dasharray="3.00000006,3.00000006"/><path d="M758.387 265.806q-.378-.22-.83-.317-.44-.11-.977-.11-1.904 0-2.93 1.245-1.012 1.233-1.012 3.552v7.203h-2.259v-13.672h2.259v2.124q.708-1.245 1.843-1.844 1.135-.61 2.759-.61.232 0 .512.037.281.024.623.085l.012 2.307zm13.538 4.175v1.099h-10.327q.146 2.32 1.391 3.54 1.257 1.208 3.491 1.208 1.294 0 2.503-.317 1.22-.317 2.417-.952v2.124q-1.209.512-2.478.781-1.27.269-2.576.269-3.271 0-5.188-1.905-1.904-1.904-1.904-5.151 0-3.357 1.806-5.322 1.82-1.978 4.895-1.978 2.76 0 4.358 1.782 1.612 1.77 1.612 4.822zm-2.246-.659q-.025-1.843-1.038-2.942-1.001-1.099-2.661-1.099-1.88 0-3.015 1.062-1.123 1.062-1.294 2.991l8.008-.012zm16.577-2.991q.842-1.513 2.014-2.234 1.172-.72 2.759-.72 2.136 0 3.296 1.502 1.16 1.489 1.16 4.248v8.252h-2.26v-8.18q0-1.964-.695-2.917-.696-.952-2.124-.952-1.745 0-2.759 1.16-1.013 1.16-1.013 3.162v7.727h-2.258v-8.18q0-1.977-.696-2.917-.696-.952-2.148-.952-1.722 0-2.735 1.172-1.013 1.16-1.013 3.15v7.727h-2.258v-13.672h2.258v2.124q.77-1.258 1.843-1.856 1.075-.598 2.552-.598 1.489 0 2.526.757 1.05.757 1.55 2.197zm19.018-1.05q-1.806 0-2.856 1.416-1.05 1.404-1.05 3.858 0 2.453 1.038 3.87 1.05 1.403 2.868 1.403 1.795 0 2.845-1.416 1.05-1.416 1.05-3.857 0-2.43-1.05-3.845-1.05-1.429-2.845-1.429zm0-1.904q2.93 0 4.602 1.904 1.673 1.905 1.673 5.274 0 3.357-1.673 5.273-1.672 1.905-4.602 1.905-2.942 0-4.614-1.905-1.66-1.916-1.66-5.273 0-3.37 1.66-5.274 1.672-1.904 4.614-1.904zm12.207-3.552v3.882h4.627v1.745h-4.627v7.422q0 1.673.452 2.149.464.476 1.868.476h2.307v1.88H819.8q-2.6 0-3.59-.965-.988-.976-.988-3.54v-7.422h-1.648v-1.745h1.648v-3.882h2.258zm19.287 10.156v1.099h-10.327q.147 2.32 1.392 3.54 1.257 1.208 3.491 1.208 1.294 0 2.503-.317 1.22-.317 2.417-.952v2.124q-1.209.512-2.478.781-1.27.269-2.576.269-3.272 0-5.188-1.905-1.904-1.904-1.904-5.151 0-3.357 1.806-5.322 1.819-1.978 4.895-1.978 2.759 0 4.358 1.782 1.611 1.77 1.611 4.822zm-2.246-.659q-.024-1.843-1.037-2.942-1.001-1.099-2.661-1.099-1.88 0-3.016 1.062-1.123 1.062-1.293 2.991l8.007-.012zm21.814-3.516q-.378-.22-.83-.317-.44-.11-.976-.11-1.905 0-2.93 1.245-1.013 1.233-1.013 3.552v7.203h-2.259v-13.672h2.259v2.124q.708-1.245 1.843-1.844 1.135-.61 2.759-.61.232 0 .513.037.28.024.622.085l.012 2.307zm13.538 4.175v1.099h-10.327q.146 2.32 1.391 3.54 1.258 1.208 3.492 1.208 1.294 0 2.502-.317 1.22-.317 2.417-.952v2.124q-1.208.512-2.478.781-1.27.269-2.576.269-3.271 0-5.188-1.905-1.904-1.904-1.904-5.151 0-3.357 1.807-5.322 1.818-1.978 4.895-1.978 2.758 0 4.358 1.782 1.61 1.77 1.61 4.822zm-2.246-.659q-.025-1.843-1.038-2.942-1-1.099-2.66-1.099-1.88 0-3.016 1.062-1.123 1.062-1.294 2.991l8.008-.012zm8.105 6.006v7.25h-2.258v-18.871h2.258v2.075q.708-1.22 1.783-1.807 1.086-.598 2.587-.598 2.49 0 4.04 1.978 1.563 1.977 1.563 5.2t-1.562 5.2q-1.55 1.978-4.04 1.978-1.502 0-2.588-.586-1.075-.598-1.783-1.82zm7.642-4.773q0-2.478-1.026-3.882-1.013-1.416-2.795-1.416t-2.808 1.416q-1.013 1.404-1.013 3.882t1.013 3.894q1.026 1.404 2.808 1.404 1.782 0 2.795-1.404 1.026-1.416 1.026-3.894zm11.352-5.274q-1.806 0-2.856 1.416-1.05 1.404-1.05 3.858 0 2.453 1.038 3.87 1.05 1.403 2.868 1.403 1.795 0 2.845-1.416 1.05-1.416 1.05-3.857 0-2.43-1.05-3.845-1.05-1.429-2.845-1.429zm0-1.904q2.93 0 4.602 1.904 1.673 1.905 1.673 5.274 0 3.357-1.673 5.273-1.672 1.905-4.602 1.905-2.941 0-4.614-1.905-1.66-1.916-1.66-5.273 0-3.37 1.66-5.274 1.673-1.904 4.614-1.904z" style="line-height:125%" font-weight="400" font-size="25" font-family="sans-serif" letter-spacing="0" word-spacing="0" fill="#fff"/><path d="M686.72 27.5h276.56c5.108 0 9.22 4.748 9.22 10.646v298.708c0 5.898-4.112 10.646-9.22 10.646H686.72c-5.108 0-9.22-4.748-9.22-10.646V38.146c0-5.898 4.112-10.646 9.22-10.646z" fill="none" stroke="#fff" stroke-width="5" stroke-linejoin="round" stroke-dasharray="4.99999989,4.99999989" stroke-opacity=".251"/><path d="M720.11 199.722v1.681h-1.933q-1.088 0-1.516.44-.418.44-.418 1.582v1.087h3.33v1.572h-3.33v10.733h-2.032v-10.733h-1.934v-1.572h1.934v-.856q0-2.055.956-2.989.956-.945 3.032-.945h1.912zm12.206 10.438v.988h-9.294q.132 2.088 1.252 3.186 1.132 1.088 3.142 1.088 1.165 0 2.253-.286 1.098-.285 2.175-.857v1.912q-1.088.461-2.23.703-1.143.242-2.318.242-2.945 0-4.67-1.714-1.713-1.714-1.713-4.636 0-3.022 1.626-4.79 1.636-1.78 4.405-1.78 2.483 0 3.922 1.604 1.45 1.593 1.45 4.34zm-2.021-.594q-.022-1.659-.934-2.648-.9-.988-2.395-.988-1.692 0-2.714.956-1.01.955-1.164 2.691l7.207-.01zm10.931 1.066q-2.45 0-3.395.56-.944.56-.944 1.912 0 1.076.703 1.714.714.626 1.933.626 1.681 0 2.692-1.187 1.022-1.197 1.022-3.175v-.45h-2.01zm4.032-.835v7.02h-2.021v-1.868q-.692 1.121-1.725 1.66-1.033.527-2.527.527-1.89 0-3.01-1.055-1.11-1.066-1.11-2.845 0-2.077 1.384-3.132 1.396-1.054 4.153-1.054h2.835v-.198q0-1.395-.923-2.153-.912-.77-2.57-.77-1.056 0-2.055.253-1 .253-1.923.758v-1.867q1.11-.429 2.153-.637 1.044-.22 2.033-.22 2.67 0 3.988 1.384t1.318 4.197zm6.175-8.778v3.493h4.163v1.572h-4.163v6.68q0 1.504.406 1.933.418.428 1.681.428h2.076v1.692h-2.076q-2.34 0-3.23-.868-.89-.879-.89-3.186v-6.68h-1.483v-1.57h1.483v-3.494h2.033zm6.624 10.942v-7.449h2.022v7.372q0 1.747.681 2.626.681.868 2.043.868 1.637 0 2.582-1.044.956-1.043.956-2.845v-6.977h2.021v12.305h-2.021v-1.89q-.736 1.121-1.714 1.67-.967.539-2.252.539-2.12 0-3.22-1.319-1.098-1.318-1.098-3.856zm5.087-7.745zm16.534 2.186q-.34-.198-.747-.286-.395-.098-.879-.098-1.713 0-2.636 1.12-.912 1.11-.912 3.197v6.482h-2.033v-12.305h2.033v1.912q.637-1.12 1.659-1.659 1.022-.55 2.483-.55.208 0 .461.034.253.022.56.077l.011 2.076zm12.184 3.758v.988h-9.294q.132 2.088 1.252 3.186 1.132 1.088 3.142 1.088 1.165 0 2.253-.286 1.098-.285 2.175-.857v1.912q-1.088.461-2.23.703-1.143.242-2.319.242-2.944 0-4.669-1.714-1.714-1.714-1.714-4.636 0-3.022 1.626-4.79 1.637-1.78 4.406-1.78 2.483 0 3.922 1.604 1.45 1.593 1.45 4.34zm-2.021-.594q-.022-1.659-.934-2.648-.901-.988-2.395-.988-1.692 0-2.714.956-1.01.955-1.164 2.691l7.207-.01zm4.317.187h5.922v1.802h-5.922v-1.802zm7.35-9.338h2.384l4.076 6.097 4.098-6.097h2.384l-5.273 7.877 5.625 8.525h-2.384l-4.615-6.976-4.647 6.976h-2.395l5.856-8.756-5.109-7.646z" style="line-height:125%" font-weight="400" font-size="22.5" font-family="sans-serif" letter-spacing="0" word-spacing="0" fill="#36c0ff"/><path d="M735.461 116.875q.758-1.363 1.813-2.011 1.055-.648 2.483-.648 1.923 0 2.966 1.351 1.044 1.34 1.044 3.823v7.427h-2.032v-7.36q0-1.77-.627-2.626-.626-.857-1.911-.857-1.571 0-2.483 1.043-.912 1.044-.912 2.846v6.954h-2.033v-7.36q0-1.78-.626-2.626-.626-.857-1.933-.857-1.55 0-2.461 1.054-.912 1.044-.912 2.835v6.954h-2.033v-12.305h2.033v1.912q.692-1.132 1.659-1.67.967-.538 2.296-.538 1.34 0 2.274.681.945.681 1.395 1.978zm17.941 3.757q-2.45 0-3.395.56-.945.56-.945 1.912 0 1.076.704 1.714.714.626 1.933.626 1.681 0 2.692-1.187 1.022-1.197 1.022-3.175v-.45h-2.011zm4.032-.835v7.02h-2.021v-1.868q-.693 1.121-1.725 1.66-1.033.527-2.527.527-1.89 0-3.01-1.055-1.11-1.066-1.11-2.845 0-2.077 1.384-3.132 1.396-1.054 4.153-1.054h2.835v-.198q0-1.395-.923-2.153-.912-.77-2.571-.77-1.055 0-2.055.253-1 .253-1.922.758v-1.867q1.11-.429 2.153-.637 1.044-.22 2.033-.22 2.67 0 3.988 1.384t1.318 4.197zm12.019-4.922v1.912q-.857-.44-1.78-.66-.923-.22-1.911-.22-1.505 0-2.264.462-.747.462-.747 1.384 0 .704.539 1.11.538.396 2.164.758l.692.154q2.154.461 3.054 1.307.912.835.912 2.34 0 1.714-1.362 2.714-1.351 1-3.724 1-.99 0-2.066-.198-1.066-.187-2.252-.571v-2.088q1.12.583 2.208.88 1.088.285 2.154.285 1.428 0 2.197-.484.769-.494.769-1.384 0-.824-.56-1.263-.55-.44-2.428-.846l-.704-.165q-1.878-.396-2.713-1.208-.835-.824-.835-2.253 0-1.736 1.23-2.68 1.23-.945 3.494-.945 1.12 0 2.11.165.988.164 1.823.494zm5.889-3.856v3.493h4.164v1.572h-4.164v6.68q0 1.504.406 1.933.418.428 1.681.428h2.077v1.692h-2.077q-2.34 0-3.23-.868-.89-.879-.89-3.186v-6.68h-1.483v-1.57h1.483v-3.494h2.033zm17.358 9.141v.988h-9.294q.132 2.088 1.252 3.186 1.132 1.088 3.142 1.088 1.165 0 2.252-.286 1.1-.285 2.176-.857v1.912q-1.088.461-2.23.703-1.143.242-2.319.242-2.944 0-4.669-1.714-1.714-1.714-1.714-4.636 0-3.022 1.626-4.79 1.637-1.78 4.406-1.78 2.483 0 3.922 1.604 1.45 1.593 1.45 4.34zm-2.021-.594q-.022-1.659-.934-2.648-.901-.988-2.395-.988-1.692 0-2.714.955-1.01.956-1.164 2.692l7.207-.01zm12.469-3.164q-.34-.198-.747-.286-.395-.098-.879-.098-1.714 0-2.637 1.12-.911 1.11-.911 3.197v6.482h-2.033v-12.305h2.033v1.912q.637-1.12 1.659-1.659 1.021-.55 2.482-.55.21 0 .462.034.253.022.56.077l.011 2.076zm36.962 83.32v1.681h-1.933q-1.088 0-1.516.44-.418.44-.418 1.582v1.087h3.33v1.572h-3.33v10.733h-2.032v-10.733h-1.934v-1.572h1.934v-.856q0-2.055.956-2.989.956-.945 3.032-.945h1.912zm12.206 10.438v.988h-9.294q.132 2.088 1.252 3.186 1.132 1.088 3.142 1.088 1.165 0 2.253-.286 1.098-.285 2.175-.857v1.912q-1.088.461-2.23.703-1.143.242-2.318.242-2.945 0-4.67-1.714-1.713-1.714-1.713-4.636 0-3.022 1.626-4.79 1.636-1.78 4.405-1.78 2.483 0 3.922 1.604 1.45 1.593 1.45 4.34zm-2.021-.594q-.022-1.659-.934-2.648-.9-.988-2.395-.988-1.692 0-2.714.956-1.01.955-1.164 2.691l7.207-.01zm10.931 1.066q-2.45 0-3.395.56-.944.56-.944 1.912 0 1.076.703 1.714.714.626 1.933.626 1.681 0 2.692-1.187 1.022-1.197 1.022-3.175v-.45h-2.01zm4.032-.835v7.02h-2.021v-1.868q-.692 1.121-1.725 1.66-1.033.527-2.527.527-1.89 0-3.01-1.055-1.11-1.066-1.11-2.845 0-2.077 1.384-3.132 1.396-1.054 4.153-1.054h2.835v-.198q0-1.395-.923-2.153-.912-.77-2.57-.77-1.056 0-2.055.253-1 .253-1.923.758v-1.867q1.11-.429 2.153-.637 1.044-.22 2.033-.22 2.67 0 3.988 1.384t1.318 4.197zm6.175-8.778v3.493h4.163v1.572h-4.163v6.68q0 1.504.406 1.933.418.428 1.681.428h2.076v1.692h-2.076q-2.34 0-3.23-.868-.89-.879-.89-3.186v-6.68h-1.483v-1.57h1.483v-3.494h2.033zm6.624 10.942v-7.449h2.022v7.372q0 1.747.681 2.626.681.868 2.043.868 1.637 0 2.582-1.044.956-1.043.956-2.845v-6.977h2.021v12.305h-2.021v-1.89q-.736 1.121-1.714 1.67-.967.539-2.252.539-2.12 0-3.22-1.319-1.098-1.318-1.098-3.856zm5.087-7.745zm16.534 2.186q-.34-.198-.747-.286-.395-.098-.879-.098-1.713 0-2.636 1.12-.912 1.11-.912 3.197v6.482h-2.033v-12.305h2.033v1.912q.637-1.12 1.659-1.659 1.022-.55 2.483-.55.208 0 .461.034.253.022.56.077l.011 2.076zm12.184 3.758v.988h-9.294q.132 2.088 1.252 3.186 1.132 1.088 3.142 1.088 1.165 0 2.253-.286 1.098-.285 2.175-.857v1.912q-1.088.461-2.23.703-1.143.242-2.319.242-2.944 0-4.669-1.714-1.714-1.714-1.714-4.636 0-3.022 1.626-4.79 1.637-1.78 4.406-1.78 2.483 0 3.922 1.604 1.45 1.593 1.45 4.34zm-2.021-.594q-.022-1.659-.934-2.648-.901-.988-2.395-.988-1.692 0-2.714.956-1.01.955-1.164 2.691l7.207-.01zm4.317.187h5.922v1.802h-5.922v-1.802zm8.295-9.338h12.887v1.691l-10.371 12.843h10.624v1.868H922.2v-1.692l10.371-12.843h-10.118v-1.867zm-82.343-90.693v1.681h-1.933q-1.088 0-1.516.44-.418.44-.418 1.582v1.087h3.33v1.571h-3.33v10.734h-2.032v-10.734h-1.934v-1.57h1.934v-.857q0-2.055.956-2.989.956-.945 3.032-.945h1.912zm12.206 10.438v.988h-9.294q.132 2.088 1.252 3.186 1.132 1.088 3.142 1.088 1.165 0 2.253-.286 1.098-.285 2.175-.857v1.912q-1.088.461-2.23.703-1.143.242-2.318.242-2.945 0-4.67-1.714-1.713-1.714-1.713-4.636 0-3.022 1.626-4.79 1.636-1.78 4.405-1.78 2.483 0 3.922 1.604 1.45 1.593 1.45 4.34zm-2.021-.594q-.022-1.659-.934-2.648-.9-.988-2.395-.988-1.692 0-2.714.955-1.01.956-1.164 2.692l7.207-.01zm10.931 1.066q-2.45 0-3.395.56-.944.56-.944 1.912 0 1.076.703 1.714.714.626 1.933.626 1.681 0 2.692-1.187 1.022-1.197 1.022-3.175v-.45h-2.01zm4.032-.835v7.02h-2.021v-1.868q-.692 1.121-1.725 1.66-1.033.527-2.527.527-1.89 0-3.01-1.055-1.11-1.066-1.11-2.845 0-2.077 1.384-3.132 1.396-1.054 4.153-1.054h2.835v-.198q0-1.395-.923-2.153-.912-.77-2.57-.77-1.056 0-2.055.253-1 .253-1.923.758v-1.867q1.11-.429 2.153-.637 1.044-.22 2.033-.22 2.67 0 3.988 1.384t1.318 4.197zm6.175-8.778v3.493h4.163v1.572h-4.163v6.68q0 1.504.406 1.933.418.428 1.681.428h2.076v1.692h-2.076q-2.34 0-3.23-.868-.89-.879-.89-3.186v-6.68h-1.483v-1.57h1.483v-3.494h2.033zm6.624 10.942v-7.449h2.022v7.372q0 1.747.681 2.626.681.868 2.043.868 1.637 0 2.582-1.044.956-1.043.956-2.845v-6.977h2.021v12.305h-2.021v-1.89q-.736 1.121-1.714 1.67-.967.539-2.252.539-2.12 0-3.22-1.319-1.098-1.318-1.098-3.856zm5.087-7.745zm16.534 2.186q-.34-.198-.747-.286-.395-.098-.879-.098-1.713 0-2.636 1.12-.912 1.11-.912 3.197v6.482h-2.033v-12.305h2.033v1.912q.637-1.12 1.659-1.659 1.022-.55 2.483-.55.208 0 .461.034.253.022.56.077l.011 2.076zm12.184 3.758v.988h-9.294q.132 2.088 1.252 3.186 1.132 1.088 3.142 1.088 1.165 0 2.253-.286 1.098-.285 2.175-.857v1.912q-1.088.461-2.23.703-1.143.242-2.319.242-2.944 0-4.669-1.714-1.714-1.714-1.714-4.636 0-3.022 1.626-4.79 1.637-1.78 4.406-1.78 2.483 0 3.922 1.604 1.45 1.593 1.45 4.34zm-2.021-.594q-.022-1.659-.934-2.648-.901-.988-2.395-.988-1.692 0-2.714.955-1.01.956-1.164 2.692l7.207-.01zm4.317.187h5.922v1.802h-5.922v-1.802zm4.307-9.338h2.384l4.548 6.745 4.516-6.745h2.384l-5.801 8.59v7.812h-2.23v-7.811l-5.801-8.591z" style="line-height:125%" font-weight="400" font-size="22.5" font-family="sans-serif" letter-spacing="0" word-spacing="0" fill="#fff"/><path d="M701.932 370.276q0-2.197-.912-3.405-.901-1.209-2.538-1.209-1.626 0-2.538 1.209-.9 1.208-.9 3.405 0 2.187.9 3.395.912 1.209 2.538 1.209 1.637 0 2.538-1.209.912-1.208.912-3.395zm2.021 4.768q0 3.142-1.395 4.67-1.395 1.538-4.274 1.538-1.066 0-2.01-.165-.945-.154-1.835-.484v-1.966q.89.483 1.758.714.868.23 1.769.23 1.988 0 2.977-1.043.989-1.033.989-3.131v-1q-.627 1.088-1.604 1.626-.978.538-2.34.538-2.264 0-3.648-1.724-1.384-1.725-1.384-4.57 0-2.857 1.384-4.582 1.384-1.725 3.647-1.725 1.363 0 2.34.538.978.539 1.605 1.626v-1.867h2.021v10.777zm4.164-10.777h2.021v12.304h-2.021v-12.304zm0-4.79h2.021v2.56h-2.021v-2.56zm8.24 1.296v3.494h4.163v1.57h-4.163v6.68q0 1.506.406 1.934.418.429 1.681.429h2.076v1.691h-2.076q-2.34 0-3.23-.867-.89-.88-.89-3.187v-6.68h-1.483v-1.57h1.483v-3.494h2.033zm17.061 8.372v7.426h-2.021v-7.36q0-1.747-.681-2.615-.681-.868-2.044-.868-1.637 0-2.581 1.044-.945 1.043-.945 2.845v6.954h-2.033v-17.094h2.033v6.701q.725-1.11 1.703-1.659.988-.549 2.274-.549 2.12 0 3.208 1.318 1.087 1.308 1.087 3.857zm3.846 2.57v-7.448h2.021v7.372q0 1.746.681 2.625.681.868 2.044.868 1.637 0 2.581-1.043.956-1.044.956-2.846v-6.976h2.022v12.304h-2.022v-1.89q-.736 1.121-1.714 1.67-.966.54-2.252.54-2.12-.001-3.219-1.32-1.098-1.318-1.098-3.856zm5.086-7.745zm18.238 6.46q0-2.23-.923-3.494-.912-1.274-2.516-1.274t-2.527 1.274q-.912 1.264-.912 3.494 0 2.23.912 3.505.923 1.263 2.527 1.263t2.516-1.263q.923-1.275.923-3.505zm-6.878-4.296q.637-1.098 1.604-1.626.978-.538 2.33-.538 2.24 0 3.636 1.78 1.406 1.78 1.406 4.68 0 2.9-1.406 4.68-1.396 1.78-3.637 1.78-1.351 0-2.329-.527-.967-.539-1.604-1.637v1.845h-2.032v-17.094h2.032v6.657zm12.843 7.646h2.318v1.89l-1.801 3.516h-1.418l.901-3.515v-1.89zm22.643-3.35q0-2.23-.923-3.494-.912-1.274-2.516-1.274t-2.527 1.274q-.911 1.264-.911 3.494 0 2.23.911 3.505.923 1.263 2.527 1.263t2.516-1.263q.923-1.275.923-3.505zm-6.877-4.296q.637-1.098 1.604-1.626.977-.538 2.329-.538 2.24 0 3.636 1.78 1.406 1.78 1.406 4.68 0 2.9-1.406 4.68-1.395 1.78-3.636 1.78-1.352 0-2.33-.527-.966-.539-1.603-1.637v1.845h-2.033v-17.094h2.033v6.657zm12.326-1.867h2.022v12.304h-2.022v-12.304zm0-4.79h2.022v2.56h-2.022v-2.56zm8.24 1.296v3.494h4.164v1.57h-4.164v6.68q0 1.506.406 1.934.418.429 1.681.429h2.077v1.691h-2.077q-2.34 0-3.23-.867-.89-.88-.89-3.187v-6.68h-1.483v-1.57h1.483v-3.494h2.033zm15.666 9.657q0-2.23-.922-3.494-.912-1.274-2.516-1.274t-2.527 1.274q-.912 1.264-.912 3.494 0 2.23.912 3.505.923 1.263 2.527 1.263t2.516-1.263q.922-1.275.922-3.505zm-6.877-4.296q.637-1.098 1.604-1.626.978-.538 2.33-.538 2.24 0 3.636 1.78 1.406 1.78 1.406 4.68 0 2.9-1.406 4.68-1.396 1.78-3.637 1.78-1.351 0-2.329-.527-.967-.539-1.604-1.637v1.845h-2.032v-17.094h2.032v6.657zm12.118 5.581v-7.448h2.021v7.372q0 1.746.682 2.625.68.868 2.043.868 1.637 0 2.582-1.043.956-1.044.956-2.846v-6.976h2.021v12.304h-2.021v-1.89q-.736 1.121-1.714 1.67-.967.54-2.252.54-2.12-.001-3.22-1.32-1.098-1.318-1.098-3.856zm5.087-7.745zm18.259.77v1.889q-.857-.473-1.725-.703-.857-.242-1.736-.242-1.966 0-3.054 1.252-1.088 1.242-1.088 3.494 0 2.252 1.088 3.505 1.088 1.241 3.054 1.241.88 0 1.736-.23.868-.242 1.725-.715v1.868q-.846.396-1.758.593-.9.198-1.923.198-2.78 0-4.416-1.747-1.637-1.747-1.637-4.713 0-3.01 1.648-4.735 1.659-1.725 4.537-1.725.934 0 1.824.198.89.187 1.725.571zm3.461-5.263h2.032v10.096l6.032-5.306h2.581l-6.526 5.757 6.801 6.547h-2.637l-6.251-6.01v6.01h-2.032v-17.094zm22.862 10.437v.988h-9.294q.132 2.088 1.252 3.187 1.132 1.087 3.142 1.087 1.165 0 2.252-.285 1.1-.286 2.176-.857v1.911q-1.088.462-2.23.703-1.143.242-2.319.242-2.944 0-4.669-1.714-1.714-1.714-1.714-4.636 0-3.021 1.626-4.79 1.637-1.78 4.406-1.78 2.483 0 3.922 1.604 1.45 1.593 1.45 4.34zm-2.021-.594q-.022-1.658-.934-2.647-.901-.989-2.395-.989-1.692 0-2.714.956-1.01.956-1.164 2.691l7.207-.01zm7.339-8.547v3.494h4.163v1.57h-4.164v6.68q0 1.506.407 1.934.417.429 1.68.429h2.077v1.691h-2.076q-2.34 0-3.23-.867-.89-.88-.89-3.187v-6.68h-1.483v-1.57h1.483v-3.494h2.033zm7.349 13.007h2.318v1.89l-1.801 3.516h-1.418l.901-3.515v-1.89zm21.907-3.504q0-2.197-.912-3.405-.9-1.209-2.538-1.209-1.626 0-2.537 1.209-.901 1.208-.901 3.405 0 2.187.9 3.395.912 1.209 2.538 1.209 1.637 0 2.538-1.209.912-1.208.912-3.395zm2.022 4.768q0 3.142-1.396 4.67-1.395 1.538-4.273 1.538-1.066 0-2.01-.165-.946-.154-1.836-.484v-1.966q.89.483 1.758.714.868.23 1.769.23 1.989 0 2.977-1.043.99-1.033.99-3.131v-1q-.627 1.088-1.605 1.626-.978.538-2.34.538-2.263 0-3.647-1.724-1.385-1.725-1.385-4.57 0-2.857 1.385-4.582 1.384-1.725 3.647-1.725 1.362 0 2.34.538.978.539 1.604 1.626v-1.867h2.022v10.777zm4.163-10.777h2.022v12.304h-2.022v-12.304zm0-4.79h2.022v2.56h-2.022v-2.56zm8.24 1.296v3.494h4.164v1.57h-4.164v6.68q0 1.506.407 1.934.417.429 1.68.429h2.077v1.691h-2.076q-2.34 0-3.23-.867-.89-.88-.89-3.187v-6.68h-1.483v-1.57h1.483v-3.494h2.032zm6.834-1.296h2.021v17.094h-2.021v-17.094zm11.832 10.909q-2.45 0-3.395.56-.945.56-.945 1.912 0 1.077.703 1.714.715.626 1.934.626 1.68 0 2.692-1.186 1.021-1.198 1.021-3.175v-.45h-2.01zm4.032-.835v7.02h-2.022v-1.867q-.692 1.12-1.724 1.659-1.033.527-2.527.527-1.89 0-3.01-1.055-1.11-1.065-1.11-2.845 0-2.077 1.384-3.131 1.395-1.055 4.153-1.055h2.834v-.198q0-1.395-.922-2.153-.912-.769-2.571-.769-1.055 0-2.055.253-1 .252-1.922.758v-1.868q1.11-.428 2.153-.637 1.044-.22 2.033-.22 2.67 0 3.988 1.384 1.318 1.385 1.318 4.197zm13.008.879q0-2.23-.923-3.494-.912-1.274-2.516-1.274t-2.527 1.274q-.912 1.264-.912 3.494 0 2.23.912 3.505.923 1.263 2.527 1.263t2.516-1.263q.923-1.275.923-3.505zm-6.878-4.296q.637-1.098 1.604-1.626.978-.538 2.33-.538 2.24 0 3.636 1.78 1.406 1.78 1.406 4.68 0 2.9-1.406 4.68-1.395 1.78-3.637 1.78-1.35 0-2.329-.527-.967-.539-1.604-1.637v1.845h-2.032v-17.094h2.032v6.657z" style="line-height:125%" font-weight="400" font-size="22.5" font-family="sans-serif" letter-spacing="0" word-spacing="0" fill="#fff" fill-opacity=".251"/><path d="M668.238 185.567l-187.507.21" fill="#36c0ff" fill-rule="evenodd" stroke="#36c0ff" stroke-width="2.5" marker-end="url(#b)"/><path d="M132.92 173.567l178.243.21" fill="#36c0ff" fill-rule="evenodd" stroke="#36c0ff" stroke-width="2.5" marker-end="url(#c)"/><path d="M314.38 185.567l-178.243.21" fill="#36c0ff" fill-rule="evenodd" stroke="#36c0ff" stroke-width="2.5" marker-end="url(#d)"/><path d="M526.648 142.084q0-2.274-.747-3.45-.736-1.187-2.154-1.187-1.483 0-2.263 1.187-.78 1.176-.78 3.45t.78 3.471q.791 1.187 2.285 1.187 1.396 0 2.132-1.198.747-1.197.747-3.46zm2.021 5.46q0 2.768-1.307 4.197-1.307 1.428-3.845 1.428-.835 0-1.747-.154-.912-.154-1.824-.45v-2q1.077.506 1.956.747.879.242 1.615.242 1.637 0 2.384-.89.747-.89.747-2.823v-1.462q-.484 1.033-1.319 1.538-.834.506-2.032.506-2.153 0-3.439-1.725-1.285-1.725-1.285-4.614 0-2.9 1.285-4.626 1.286-1.724 3.439-1.724 1.187 0 2.01.472.824.472 1.34 1.461v-1.593h2.022v11.47zm4.901-11.514h5.174v10.734h4.01v1.57h-10.042v-1.57h4.01V137.6h-3.153v-1.57zm3.152-4.79h2.022v2.56h-2.022v-2.56zm14.315 1.297v3.493h4.593v1.571h-4.593v6.68q0 1.362.517 1.9.516.539 1.802.539h2.274v1.615h-2.472q-2.274 0-3.208-.912-.934-.912-.934-3.142v-6.68h-3.285v-1.57h3.285v-3.494h2.021zm24.445 14.249v6.23h-2.032V136.03h2.032v1.571q.505-.912 1.34-1.384.846-.483 1.945-.483 2.23 0 3.494 1.724 1.274 1.725 1.274 4.78 0 2.999-1.274 4.713-1.275 1.703-3.494 1.703-1.12 0-1.967-.473-.835-.483-1.318-1.395zm5.933-4.592q0-2.351-.747-3.549-.736-1.198-2.198-1.198-1.472 0-2.23 1.209-.758 1.197-.758 3.538 0 2.329.758 3.537.758 1.209 2.23 1.209 1.462 0 2.198-1.198.747-1.197.747-3.548zm5.625 1.483v-7.625h2.021v7.625q0 1.659.582 2.439.594.78 1.824.78 1.428 0 2.186-1 .758-1.01.758-2.89v-6.954h2.033v12.283h-2.033v-1.846q-.538 1.066-1.472 1.615-.923.55-2.164.55-1.89 0-2.812-1.23-.923-1.242-.923-3.747zm22.082-7.218v1.977q-.868-.505-1.747-.758-.879-.252-1.79-.252-1.374 0-2.055.45-.67.44-.67 1.351 0 .824.505 1.23.506.407 2.516.792l.813.154q1.505.285 2.274 1.142.78.857.78 2.23 0 1.824-1.296 2.857-1.296 1.022-3.603 1.022-.912 0-1.912-.198-1-.187-2.164-.572v-2.087q1.131.582 2.164.879 1.033.286 1.955.286 1.34 0 2.077-.539.736-.549.736-1.527 0-1.406-2.692-1.944l-.088-.022-.758-.154q-1.746-.34-2.548-1.143-.802-.813-.802-2.208 0-1.769 1.197-2.725 1.198-.966 3.417-.966.989 0 1.9.186.912.176 1.791.539zm14.392 4.251v7.625h-2.032v-7.625q0-1.659-.582-2.439-.583-.78-1.824-.78-1.417 0-2.186 1.011-.759 1-.759 2.879v6.954h-2.021V131.24h2.021v6.636q.539-1.055 1.462-1.593.923-.55 2.186-.55 1.879 0 2.801 1.242.934 1.23.934 3.735zm-100.866 77.374q0-2.274-.747-3.45-.736-1.187-2.154-1.187-1.483 0-2.263 1.187-.78 1.176-.78 3.45t.78 3.471q.791 1.187 2.285 1.187 1.396 0 2.132-1.198.747-1.197.747-3.46zm2.021 5.46q0 2.768-1.307 4.197-1.307 1.428-3.845 1.428-.835 0-1.747-.154-.912-.154-1.824-.45v-2q1.077.506 1.956.747.879.242 1.615.242 1.637 0 2.384-.89.747-.89.747-2.823v-1.462q-.484 1.033-1.319 1.538-.834.506-2.032.506-2.153 0-3.439-1.725-1.285-1.725-1.285-4.614 0-2.9 1.285-4.626 1.286-1.724 3.439-1.724 1.187 0 2.01.472.824.472 1.34 1.461v-1.593h2.022v11.47zm4.901-11.514h5.174v10.734h4.01v1.57h-10.042v-1.57h4.01V213.6h-3.153v-1.57zm3.152-4.79h2.022v2.56h-2.022v-2.56zm14.315 1.297v3.493h4.593v1.571h-4.593v6.68q0 1.362.517 1.9.516.539 1.802.539h2.274v1.615h-2.472q-2.274 0-3.208-.912-.934-.912-.934-3.142v-6.68h-3.285v-1.57h3.285v-3.494h2.021zm24.445 14.249v6.23h-2.032V212.03h2.032v1.571q.505-.912 1.34-1.384.846-.483 1.945-.483 2.23 0 3.494 1.724 1.274 1.725 1.274 4.78 0 2.999-1.274 4.713-1.275 1.703-3.494 1.703-1.12 0-1.967-.473-.835-.483-1.318-1.395zm5.933-4.592q0-2.351-.747-3.549-.736-1.198-2.198-1.198-1.472 0-2.23 1.209-.758 1.197-.758 3.538 0 2.329.758 3.537.758 1.209 2.23 1.209 1.462 0 2.198-1.198.747-1.197.747-3.548zm5.625 1.483v-7.625h2.021v7.625q0 1.659.582 2.439.594.78 1.824.78 1.428 0 2.186-1 .758-1.01.758-2.89v-6.954h2.033v12.283h-2.033v-1.846q-.538 1.066-1.472 1.615-.923.55-2.164.55-1.89 0-2.812-1.23-.923-1.242-.923-3.747zm18.413.197q0 1.363.494 2.055.506.692 1.483.692h2.362v1.714h-2.56q-1.812 0-2.812-1.165-.989-1.164-.989-3.296v-11.173h-3.24v-1.582h5.262v12.755zm13.535 0q0 1.363.494 2.055.506.692 1.483.692h2.363v1.714h-2.56q-1.813 0-2.813-1.165-.989-1.164-.989-3.296v-11.173h-3.24v-1.582h5.262v12.755z" style="-inkscape-font-specification:monospace;text-align:center" font-weight="400" font-size="22.5" font-family="monospace" letter-spacing="0" word-spacing="0" text-anchor="middle" fill="#36c0ff"/><path d="M402.564 82.99a5.092 5.092 0 0 0-5.108-5.109 5.092 5.092 0 0 0-5.107 5.108c0 1.876 1.037 3.512 2.554 4.39v.758c-.04 1.317-.599 2.514-1.597 3.511-.997.998-2.194 1.557-3.511 1.596-2.115.04-3.791.4-5.108 1.158V82.27c1.517-.878 2.554-2.514 2.554-4.39a5.092 5.092 0 0 0-5.108-5.107 5.092 5.092 0 0 0-5.107 5.107c0 1.876 1.037 3.512 2.553 4.39v16.76c-1.516.877-2.553 2.514-2.553 4.389a5.092 5.092 0 0 0 5.107 5.108 5.092 5.092 0 0 0 5.108-5.108 5.1 5.1 0 0 0-1.357-3.472c.24-.16 1.237-1.037 1.517-1.197.638-.28 1.436-.439 2.394-.439 2.673-.12 4.988-1.157 7.023-3.192 2.035-2.035 3.073-5.068 3.192-7.702h-.04c1.557-.917 2.594-2.553 2.594-4.429zm-20.43-8.181c1.675 0 3.072 1.396 3.072 3.072 0 1.676-1.397 3.073-3.073 3.073s-3.072-1.397-3.072-3.073 1.396-3.072 3.072-3.072zm0 31.684c-1.677 0-3.073-1.397-3.073-3.073s1.396-3.073 3.072-3.073c1.676 0 3.073 1.397 3.073 3.073s-1.397 3.073-3.073 3.073zm15.322-20.431c-1.675 0-3.072-1.397-3.072-3.073s1.397-3.073 3.072-3.073c1.676 0 3.073 1.397 3.073 3.073s-1.397 3.073-3.073 3.073z" fill="#fff"/><path d="M402.564 170.99a5.092 5.092 0 0 0-5.108-5.109 5.092 5.092 0 0 0-5.107 5.108c0 1.876 1.037 3.512 2.554 4.39v.758c-.04 1.317-.599 2.514-1.597 3.511-.997.998-2.194 1.557-3.511 1.596-2.115.04-3.791.4-5.108 1.158V170.27c1.517-.878 2.554-2.514 2.554-4.39a5.092 5.092 0 0 0-5.108-5.107 5.092 5.092 0 0 0-5.107 5.107c0 1.876 1.037 3.512 2.553 4.39v16.76c-1.516.877-2.553 2.514-2.553 4.389a5.092 5.092 0 0 0 5.107 5.108 5.092 5.092 0 0 0 5.108-5.108 5.1 5.1 0 0 0-1.357-3.472c.24-.16 1.237-1.037 1.517-1.197.638-.28 1.436-.439 2.394-.439 2.673-.12 4.988-1.157 7.023-3.192 2.035-2.035 3.073-5.068 3.192-7.702h-.04c1.557-.917 2.594-2.553 2.594-4.429zm-20.43-8.181c1.675 0 3.072 1.396 3.072 3.072 0 1.676-1.397 3.073-3.073 3.073s-3.072-1.397-3.072-3.073 1.396-3.072 3.072-3.072zm0 31.684c-1.677 0-3.073-1.397-3.073-3.073s1.396-3.073 3.072-3.073c1.676 0 3.073 1.397 3.073 3.073s-1.397 3.073-3.073 3.073zm15.322-20.431c-1.675 0-3.072-1.397-3.072-3.073s1.397-3.073 3.072-3.073c1.676 0 3.073 1.397 3.073 3.073s-1.397 3.073-3.073 3.073z" fill="#36c0ff"/><path d="M778.564 82.99a5.092 5.092 0 0 0-5.108-5.109 5.092 5.092 0 0 0-5.107 5.108c0 1.876 1.037 3.512 2.554 4.39v.758c-.04 1.317-.599 2.514-1.597 3.511-.997.998-2.194 1.557-3.511 1.596-2.115.04-3.791.4-5.108 1.158V82.27c1.517-.878 2.554-2.514 2.554-4.39a5.092 5.092 0 0 0-5.108-5.107 5.092 5.092 0 0 0-5.107 5.107c0 1.876 1.037 3.512 2.553 4.39v16.76c-1.516.877-2.553 2.514-2.553 4.389a5.092 5.092 0 0 0 5.107 5.108 5.092 5.092 0 0 0 5.108-5.108 5.1 5.1 0 0 0-1.357-3.472c.24-.16 1.237-1.037 1.517-1.197.638-.28 1.436-.439 2.394-.439 2.673-.12 4.988-1.157 7.023-3.192 2.035-2.035 3.073-5.068 3.192-7.702h-.04c1.557-.917 2.594-2.553 2.594-4.429zm-20.43-8.181c1.675 0 3.072 1.396 3.072 3.072 0 1.676-1.397 3.073-3.073 3.073s-3.072-1.397-3.072-3.073 1.396-3.072 3.072-3.072zm0 31.684c-1.677 0-3.073-1.397-3.073-3.073s1.396-3.073 3.072-3.073c1.676 0 3.073 1.397 3.073 3.073s-1.397 3.073-3.073 3.073zm15.322-20.431c-1.676 0-3.072-1.397-3.072-3.073s1.396-3.073 3.072-3.073c1.676 0 3.073 1.397 3.073 3.073s-1.397 3.073-3.073 3.073z" fill="#fff"/><path d="M778.564 170.99a5.092 5.092 0 0 0-5.108-5.109 5.092 5.092 0 0 0-5.107 5.108c0 1.876 1.037 3.512 2.554 4.39v.758c-.04 1.317-.599 2.514-1.597 3.511-.997.998-2.194 1.557-3.511 1.596-2.115.04-3.791.4-5.108 1.158V170.27c1.517-.878 2.554-2.514 2.554-4.39a5.092 5.092 0 0 0-5.108-5.107 5.092 5.092 0 0 0-5.107 5.107c0 1.876 1.037 3.512 2.553 4.39v16.76c-1.516.877-2.553 2.514-2.553 4.389a5.092 5.092 0 0 0 5.107 5.108 5.092 5.092 0 0 0 5.108-5.108 5.1 5.1 0 0 0-1.357-3.472c.24-.16 1.237-1.037 1.517-1.197.638-.28 1.436-.439 2.394-.439 2.673-.12 4.988-1.157 7.023-3.192 2.035-2.035 3.073-5.068 3.192-7.702h-.04c1.557-.917 2.594-2.553 2.594-4.429zm-20.43-8.181c1.675 0 3.072 1.396 3.072 3.072 0 1.676-1.397 3.073-3.073 3.073s-3.072-1.397-3.072-3.073 1.396-3.072 3.072-3.072zm0 31.684c-1.677 0-3.073-1.397-3.073-3.073s1.396-3.073 3.072-3.073c1.676 0 3.073 1.397 3.073 3.073s-1.397 3.073-3.073 3.073zm15.322-20.431c-1.676 0-3.072-1.397-3.072-3.073s1.396-3.073 3.072-3.073c1.676 0 3.073 1.397 3.073 3.073s-1.397 3.073-3.073 3.073z" fill="#36c0ff"/><path d="M898.564 82.99a5.092 5.092 0 0 0-5.108-5.109 5.092 5.092 0 0 0-5.107 5.108c0 1.876 1.037 3.512 2.554 4.39v.758c-.04 1.317-.599 2.514-1.597 3.511-.997.998-2.194 1.557-3.511 1.596-2.115.04-3.791.4-5.108 1.158V82.27c1.517-.878 2.554-2.514 2.554-4.39a5.092 5.092 0 0 0-5.108-5.107 5.092 5.092 0 0 0-5.107 5.107c0 1.876 1.037 3.512 2.553 4.39v16.76c-1.516.877-2.553 2.514-2.553 4.389a5.092 5.092 0 0 0 5.107 5.108 5.092 5.092 0 0 0 5.108-5.108 5.1 5.1 0 0 0-1.357-3.472c.24-.16 1.237-1.037 1.517-1.197.638-.28 1.436-.439 2.394-.439 2.673-.12 4.988-1.157 7.023-3.192 2.035-2.035 3.073-5.068 3.192-7.702h-.04c1.557-.917 2.594-2.553 2.594-4.429zm-20.43-8.181c1.675 0 3.072 1.396 3.072 3.072 0 1.676-1.397 3.073-3.073 3.073s-3.072-1.397-3.072-3.073 1.396-3.072 3.072-3.072zm0 31.684c-1.677 0-3.073-1.397-3.073-3.073s1.396-3.073 3.072-3.073c1.676 0 3.073 1.397 3.073 3.073s-1.397 3.073-3.073 3.073zm15.322-20.431c-1.676 0-3.072-1.397-3.072-3.073s1.396-3.073 3.072-3.073c1.676 0 3.073 1.397 3.073 3.073s-1.397 3.073-3.073 3.073zm5.108 86.928a5.092 5.092 0 0 0-5.108-5.109 5.092 5.092 0 0 0-5.107 5.108c0 1.876 1.037 3.512 2.554 4.39v.758c-.04 1.317-.599 2.514-1.597 3.511-.997.998-2.194 1.557-3.511 1.596-2.115.04-3.791.4-5.108 1.158V172.27c1.517-.878 2.554-2.514 2.554-4.39a5.092 5.092 0 0 0-5.108-5.107 5.092 5.092 0 0 0-5.107 5.107c0 1.876 1.037 3.512 2.553 4.39v16.76c-1.516.877-2.553 2.514-2.553 4.389a5.092 5.092 0 0 0 5.107 5.108 5.092 5.092 0 0 0 5.108-5.108 5.1 5.1 0 0 0-1.357-3.472c.24-.16 1.237-1.037 1.517-1.197.638-.28 1.436-.439 2.394-.439 2.673-.12 4.988-1.157 7.023-3.192 2.035-2.035 3.073-5.068 3.192-7.702h-.04c1.557-.917 2.594-2.553 2.594-4.429zm-20.43-8.181c1.675 0 3.072 1.396 3.072 3.072 0 1.676-1.397 3.073-3.073 3.073s-3.072-1.397-3.072-3.073 1.396-3.072 3.072-3.072zm0 31.684c-1.677 0-3.073-1.397-3.073-3.073s1.396-3.073 3.072-3.073c1.676 0 3.073 1.397 3.073 3.073s-1.397 3.073-3.073 3.073zm15.322-20.431c-1.676 0-3.072-1.397-3.072-3.073s1.396-3.073 3.072-3.073c1.676 0 3.073 1.397 3.073 3.073s-1.397 3.073-3.073 3.073z" fill="#fff"/></svg>