<svg xmlns="http://www.w3.org/2000/svg" width="1000" height="400" viewBox="0 0 1000 400"><defs><marker orient="auto" id="b" overflow="visible"><path d="M-5.231-2.42L1.324-.01-5.23 2.401c1.047-1.423 1.041-3.37 0-4.821z" fill-rule="evenodd" stroke-width=".375" stroke-linejoin="round" stroke="#36c0ff" fill="#36c0ff"/></marker><marker id="c" orient="auto" overflow="visible"><path d="M-5.231-2.42L1.324-.01-5.23 2.401c1.047-1.423 1.041-3.37 0-4.821z" fill-rule="evenodd" stroke-width=".375" stroke-linejoin="round" stroke="#36c0ff" fill="#36c0ff"/></marker><marker id="d" orient="auto" overflow="visible"><path d="M-5.231-2.42L1.324-.01-5.23 2.401c1.047-1.423 1.041-3.37 0-4.821z" fill-rule="evenodd" stroke-width=".375" stroke-linejoin="round" stroke="#36c0ff" fill="#36c0ff"/></marker><marker orient="auto" id="a" overflow="visible"><path d="M-5.231-2.42L1.324-.01-5.23 2.401c1.047-1.423 1.041-3.37 0-4.821z" fill-rule="evenodd" stroke-width=".375" stroke-linejoin="round" stroke="#36c0ff" fill="#36c0ff"/></marker></defs><rect width="445" height="320" x="27.5" y="27.5" rx="9.22" ry="10.646" fill="none" stroke="#fff" stroke-width="5" stroke-linejoin="round" stroke-dasharray="4.99999992,4.9999999199999996" stroke-opacity=".251"/><text style="line-height:125%" x="161.714" y="374.571" font-weight="400" font-size="30" font-family="sans-serif" letter-spacing="0" word-spacing="0" fill="#fff" fill-opacity=".251"><tspan x="161.714" y="374.571" font-size="22.5">your machine</tspan></text><rect ry="3.518" rx="7.109" y="51.5" x="51.5" height="197" width="72" fill="none" stroke="#fff" stroke-width="3" stroke-linejoin="round" stroke-dasharray="3.00000004,3.00000004"/><text style="line-height:125%" x="84.862" y="109.755" font-weight="400" font-size="22.5" font-family="sans-serif" letter-spacing="0" word-spacing="0" fill="#36c0ff"><tspan x="84.862" y="109.755" style="-inkscape-font-specification:monospace;text-align:center" font-family="monospace" text-anchor="middle">.py</tspan><tspan x="84.862" y="137.88" style="-inkscape-font-specification:monospace;text-align:center" font-family="monospace" text-anchor="middle">.m</tspan><tspan x="84.862" y="166.005" style="-inkscape-font-specification:monospace;text-align:center" font-family="monospace" text-anchor="middle">.c</tspan><tspan x="84.862" y="194.13" style="-inkscape-font-specification:monospace;text-align:center" font-family="monospace" text-anchor="middle">.h</tspan></text><text style="line-height:125%;text-align:center" x="88.192" y="277.195" font-weight="400" font-size="22.5" font-family="sans-serif" letter-spacing="0" word-spacing="0" text-anchor="middle" fill="#fff"><tspan x="88.192" y="277.195" style="text-align:center">working</tspan><tspan x="88.192" y="305.32" style="text-align:center">copy</tspan></text><rect ry="3.518" rx="7.109" y="51.5" x="326.5" height="197" width="122" fill="none" stroke="#fff" stroke-width="3" stroke-linejoin="round" stroke-dasharray="2.99999998,2.99999998"/><path d="M477.347 173.567l187.507.21" fill="#36c0ff" fill-rule="evenodd" stroke="#36c0ff" stroke-width="2.5" marker-end="url(#a)"/><text style="line-height:125%;text-align:center" x="387.457" y="277.195" font-weight="400" font-size="22.5" font-family="sans-serif" letter-spacing="0" word-spacing="0" text-anchor="middle" fill="#fff"><tspan x="387.457" y="277.195">.git</tspan><tspan x="387.457" y="305.32">local repo</tspan></text><text style="line-height:125%" x="336.761" y="216.817" font-weight="400" font-size="25" font-family="sans-serif" letter-spacing="0" word-spacing="0" fill="#36c0ff"><tspan x="336.761" y="216.817" font-size="22.5">feature-X</tspan></text><text y="126.817" x="348.761" style="line-height:125%" font-weight="400" font-size="22.5" font-family="sans-serif" letter-spacing="0" word-spacing="0" fill="#fff"><tspan y="126.817" x="348.761">master</tspan></text><text style="line-height:125%;text-align:center" x="225.362" y="124.335" font-weight="400" font-size="22.5" font-family="sans-serif" letter-spacing="0" word-spacing="0" text-anchor="middle" fill="#36c0ff"><tspan x="225.362" y="124.335" style="-inkscape-font-specification:monospace;text-align:center" font-family="monospace">git add</tspan><tspan x="225.362" y="152.46" style="-inkscape-font-specification:monospace;text-align:center" font-family="monospace">git commit</tspan></text><text style="line-height:125%;-inkscape-font-specification:monospace" x="144.825" y="225.473" font-weight="400" font-size="22.5" font-family="monospace" letter-spacing="0" word-spacing="0" fill="#36c0ff"><tspan x="144.825" y="225.473">git checkout</tspan></text><rect width="247" height="197" x="701.5" y="51.5" rx="7.109" ry="3.518" fill="none" stroke="#fff" stroke-width="3" stroke-linejoin="round" stroke-dasharray="3.00000006,3.00000006"/><text y="277.379" x="748.109" style="line-height:125%" font-weight="400" font-size="25" font-family="sans-serif" letter-spacing="0" word-spacing="0" fill="#fff"><tspan y="277.379" x="748.109">remote repo</tspan></text><rect width="295" height="320" x="677.5" y="27.5" rx="9.22" ry="10.646" fill="none" stroke="#fff" stroke-width="5" stroke-linejoin="round" stroke-dasharray="4.99999989,4.99999988999999978" stroke-opacity=".251"/><text y="216.817" x="711.761" style="line-height:125%" font-weight="400" font-size="25" font-family="sans-serif" letter-spacing="0" word-spacing="0" fill="#36c0ff"><tspan y="216.817" x="711.761" font-size="22.5">feature-X</tspan></text><text style="line-height:125%" x="723.761" y="126.817" font-weight="400" font-size="22.5" font-family="sans-serif" letter-spacing="0" word-spacing="0" fill="#fff"><tspan x="723.761" y="126.817">master</tspan></text><text style="line-height:125%" x="831.761" y="216.817" font-weight="400" font-size="25" font-family="sans-serif" letter-spacing="0" word-spacing="0" fill="#fff"><tspan x="831.761" y="216.817" font-size="22.5">feature-Z</tspan></text><text y="126.817" x="831.761" style="line-height:125%" font-weight="400" font-size="22.5" font-family="sans-serif" letter-spacing="0" word-spacing="0" fill="#fff"><tspan y="126.817" x="831.761">feature-Y</tspan></text><text y="376.571" x="691.714" style="line-height:125%" font-weight="400" font-size="30" font-family="sans-serif" letter-spacing="0" word-spacing="0" fill="#fff" fill-opacity=".251"><tspan y="376.571" x="691.714" font-size="22.5">github, bitbucket, gitlab</tspan></text><path d="M668.238 185.567l-187.507.21" fill="#36c0ff" fill-rule="evenodd" stroke="#36c0ff" stroke-width="2.5" marker-end="url(#b)"/><path d="M132.92 173.567l178.243.21" fill="#36c0ff" fill-rule="evenodd" stroke="#36c0ff" stroke-width="2.5" marker-end="url(#c)"/><path d="M314.38 185.567l-178.243.21" fill="#36c0ff" fill-rule="evenodd" stroke="#36c0ff" stroke-width="2.5" marker-end="url(#d)"/><text y="148.335" x="571.362" style="line-height:125%;text-align:center" font-weight="400" font-size="22.5" font-family="sans-serif" letter-spacing="0" word-spacing="0" text-anchor="middle" fill="#36c0ff"><tspan style="-inkscape-font-specification:monospace;text-align:center" y="148.335" x="571.362" font-family="monospace">git push</tspan></text><text style="line-height:125%;text-align:center" x="567.362" y="224.335" font-weight="400" font-size="22.5" font-family="sans-serif" letter-spacing="0" word-spacing="0" text-anchor="middle" fill="#36c0ff"><tspan x="567.362" y="224.335" style="-inkscape-font-specification:monospace;text-align:center" font-family="monospace">git pull</tspan></text><path d="M402.564 82.99a5.092 5.092 0 0 0-5.108-5.109 5.092 5.092 0 0 0-5.107 5.108c0 1.876 1.037 3.512 2.554 4.39v.758c-.04 1.317-.599 2.514-1.597 3.511-.997.998-2.194 1.557-3.511 1.596-2.115.04-3.791.4-5.108 1.158V82.27c1.517-.878 2.554-2.514 2.554-4.39a5.092 5.092 0 0 0-5.108-5.107 5.092 5.092 0 0 0-5.107 5.107c0 1.876 1.037 3.512 2.553 4.39v16.76c-1.516.877-2.553 2.514-2.553 4.389a5.092 5.092 0 0 0 5.107 5.108 5.092 5.092 0 0 0 5.108-5.108 5.1 5.1 0 0 0-1.357-3.472c.24-.16 1.237-1.037 1.517-1.197.638-.28 1.436-.439 2.394-.439 2.673-.12 4.988-1.157 7.023-3.192 2.035-2.035 3.073-5.068 3.192-7.702h-.04c1.557-.917 2.594-2.553 2.594-4.429zm-20.43-8.181c1.675 0 3.072 1.396 3.072 3.072 0 1.676-1.397 3.073-3.073 3.073s-3.072-1.397-3.072-3.073 1.396-3.072 3.072-3.072zm0 31.684c-1.677 0-3.073-1.397-3.073-3.073s1.396-3.073 3.072-3.073c1.676 0 3.073 1.397 3.073 3.073s-1.397 3.073-3.073 3.073zm15.322-20.431c-1.675 0-3.072-1.397-3.072-3.073s1.397-3.073 3.072-3.073c1.676 0 3.073 1.397 3.073 3.073s-1.397 3.073-3.073 3.073z" fill="#fff"/><path d="M402.564 170.99a5.092 5.092 0 0 0-5.108-5.109 5.092 5.092 0 0 0-5.107 5.108c0 1.876 1.037 3.512 2.554 4.39v.758c-.04 1.317-.599 2.514-1.597 3.511-.997.998-2.194 1.557-3.511 1.596-2.115.04-3.791.4-5.108 1.158V170.27c1.517-.878 2.554-2.514 2.554-4.39a5.092 5.092 0 0 0-5.108-5.107 5.092 5.092 0 0 0-5.107 5.107c0 1.876 1.037 3.512 2.553 4.39v16.76c-1.516.877-2.553 2.514-2.553 4.389a5.092 5.092 0 0 0 5.107 5.108 5.092 5.092 0 0 0 5.108-5.108 5.1 5.1 0 0 0-1.357-3.472c.24-.16 1.237-1.037 1.517-1.197.638-.28 1.436-.439 2.394-.439 2.673-.12 4.988-1.157 7.023-3.192 2.035-2.035 3.073-5.068 3.192-7.702h-.04c1.557-.917 2.594-2.553 2.594-4.429zm-20.43-8.181c1.675 0 3.072 1.396 3.072 3.072 0 1.676-1.397 3.073-3.073 3.073s-3.072-1.397-3.072-3.073 1.396-3.072 3.072-3.072zm0 31.684c-1.677 0-3.073-1.397-3.073-3.073s1.396-3.073 3.072-3.073c1.676 0 3.073 1.397 3.073 3.073s-1.397 3.073-3.073 3.073zm15.322-20.431c-1.675 0-3.072-1.397-3.072-3.073s1.397-3.073 3.072-3.073c1.676 0 3.073 1.397 3.073 3.073s-1.397 3.073-3.073 3.073z" fill="#36c0ff"/><path d="M778.564 82.99a5.092 5.092 0 0 0-5.108-5.109 5.092 5.092 0 0 0-5.107 5.108c0 1.876 1.037 3.512 2.554 4.39v.758c-.04 1.317-.599 2.514-1.597 3.511-.997.998-2.194 1.557-3.511 1.596-2.115.04-3.791.4-5.108 1.158V82.27c1.517-.878 2.554-2.514 2.554-4.39a5.092 5.092 0 0 0-5.108-5.107 5.092 5.092 0 0 0-5.107 5.107c0 1.876 1.037 3.512 2.553 4.39v16.76c-1.516.877-2.553 2.514-2.553 4.389a5.092 5.092 0 0 0 5.107 5.108 5.092 5.092 0 0 0 5.108-5.108 5.1 5.1 0 0 0-1.357-3.472c.24-.16 1.237-1.037 1.517-1.197.638-.28 1.436-.439 2.394-.439 2.673-.12 4.988-1.157 7.023-3.192 2.035-2.035 3.073-5.068 3.192-7.702h-.04c1.557-.917 2.594-2.553 2.594-4.429zm-20.43-8.181c1.675 0 3.072 1.396 3.072 3.072 0 1.676-1.397 3.073-3.073 3.073s-3.072-1.397-3.072-3.073 1.396-3.072 3.072-3.072zm0 31.684c-1.677 0-3.073-1.397-3.073-3.073s1.396-3.073 3.072-3.073c1.676 0 3.073 1.397 3.073 3.073s-1.397 3.073-3.073 3.073zm15.322-20.431c-1.676 0-3.072-1.397-3.072-3.073s1.396-3.073 3.072-3.073c1.676 0 3.073 1.397 3.073 3.073s-1.397 3.073-3.073 3.073z" fill="#fff"/><path d="M778.564 170.99a5.092 5.092 0 0 0-5.108-5.109 5.092 5.092 0 0 0-5.107 5.108c0 1.876 1.037 3.512 2.554 4.39v.758c-.04 1.317-.599 2.514-1.597 3.511-.997.998-2.194 1.557-3.511 1.596-2.115.04-3.791.4-5.108 1.158V170.27c1.517-.878 2.554-2.514 2.554-4.39a5.092 5.092 0 0 0-5.108-5.107 5.092 5.092 0 0 0-5.107 5.107c0 1.876 1.037 3.512 2.553 4.39v16.76c-1.516.877-2.553 2.514-2.553 4.389a5.092 5.092 0 0 0 5.107 5.108 5.092 5.092 0 0 0 5.108-5.108 5.1 5.1 0 0 0-1.357-3.472c.24-.16 1.237-1.037 1.517-1.197.638-.28 1.436-.439 2.394-.439 2.673-.12 4.988-1.157 7.023-3.192 2.035-2.035 3.073-5.068 3.192-7.702h-.04c1.557-.917 2.594-2.553 2.594-4.429zm-20.43-8.181c1.675 0 3.072 1.396 3.072 3.072 0 1.676-1.397 3.073-3.073 3.073s-3.072-1.397-3.072-3.073 1.396-3.072 3.072-3.072zm0 31.684c-1.677 0-3.073-1.397-3.073-3.073s1.396-3.073 3.072-3.073c1.676 0 3.073 1.397 3.073 3.073s-1.397 3.073-3.073 3.073zm15.322-20.431c-1.676 0-3.072-1.397-3.072-3.073s1.396-3.073 3.072-3.073c1.676 0 3.073 1.397 3.073 3.073s-1.397 3.073-3.073 3.073z" fill="#36c0ff"/><path d="M898.564 82.99a5.092 5.092 0 0 0-5.108-5.109 5.092 5.092 0 0 0-5.107 5.108c0 1.876 1.037 3.512 2.554 4.39v.758c-.04 1.317-.599 2.514-1.597 3.511-.997.998-2.194 1.557-3.511 1.596-2.115.04-3.791.4-5.108 1.158V82.27c1.517-.878 2.554-2.514 2.554-4.39a5.092 5.092 0 0 0-5.108-5.107 5.092 5.092 0 0 0-5.107 5.107c0 1.876 1.037 3.512 2.553 4.39v16.76c-1.516.877-2.553 2.514-2.553 4.389a5.092 5.092 0 0 0 5.107 5.108 5.092 5.092 0 0 0 5.108-5.108 5.1 5.1 0 0 0-1.357-3.472c.24-.16 1.237-1.037 1.517-1.197.638-.28 1.436-.439 2.394-.439 2.673-.12 4.988-1.157 7.023-3.192 2.035-2.035 3.073-5.068 3.192-7.702h-.04c1.557-.917 2.594-2.553 2.594-4.429zm-20.43-8.181c1.675 0 3.072 1.396 3.072 3.072 0 1.676-1.397 3.073-3.073 3.073s-3.072-1.397-3.072-3.073 1.396-3.072 3.072-3.072zm0 31.684c-1.677 0-3.073-1.397-3.073-3.073s1.396-3.073 3.072-3.073c1.676 0 3.073 1.397 3.073 3.073s-1.397 3.073-3.073 3.073zm15.322-20.431c-1.676 0-3.072-1.397-3.072-3.073s1.396-3.073 3.072-3.073c1.676 0 3.073 1.397 3.073 3.073s-1.397 3.073-3.073 3.073zm5.108 86.928a5.092 5.092 0 0 0-5.108-5.109 5.092 5.092 0 0 0-5.107 5.108c0 1.876 1.037 3.512 2.554 4.39v.758c-.04 1.317-.599 2.514-1.597 3.511-.997.998-2.194 1.557-3.511 1.596-2.115.04-3.791.4-5.108 1.158V172.27c1.517-.878 2.554-2.514 2.554-4.39a5.092 5.092 0 0 0-5.108-5.107 5.092 5.092 0 0 0-5.107 5.107c0 1.876 1.037 3.512 2.553 4.39v16.76c-1.516.877-2.553 2.514-2.553 4.389a5.092 5.092 0 0 0 5.107 5.108 5.092 5.092 0 0 0 5.108-5.108 5.1 5.1 0 0 0-1.357-3.472c.24-.16 1.237-1.037 1.517-1.197.638-.28 1.436-.439 2.394-.439 2.673-.12 4.988-1.157 7.023-3.192 2.035-2.035 3.073-5.068 3.192-7.702h-.04c1.557-.917 2.594-2.553 2.594-4.429zm-20.43-8.181c1.675 0 3.072 1.396 3.072 3.072 0 1.676-1.397 3.073-3.073 3.073s-3.072-1.397-3.072-3.073 1.396-3.072 3.072-3.072zm0 31.684c-1.677 0-3.073-1.397-3.073-3.073s1.396-3.073 3.072-3.073c1.676 0 3.073 1.397 3.073 3.073s-1.397 3.073-3.073 3.073zm15.322-20.431c-1.676 0-3.072-1.397-3.072-3.073s1.396-3.073 3.072-3.073c1.676 0 3.073 1.397 3.073 3.073s-1.397 3.073-3.073 3.073z" fill="#fff"/></svg>