<svg xmlns="http://www.w3.org/2000/svg" width="1000" height="350" viewBox="0 0 1000 350"><g transform="translate(0 -50)"><path d="M789.33 230H488.305M789.33 130H488.305" fill="none" stroke="#fff" stroke-width="5" stroke-dasharray="5,5"/><text y="95.374" x="157.023" style="line-height:125%" font-weight="400" font-size="40" font-family="sans-serif" letter-spacing="0" word-spacing="0" fill="#fff"><tspan style="-inkscape-font-specification:monospace;text-align:center" y="95.374" x="157.023" font-size="27.5" font-family="monospace" text-anchor="middle">= git commit</tspan></text><path d="M631.33 231.01l-100.005 98.985M328.3 230l102.025-100.015M129.3 230l102.025 99.995M30.305 230H729.33" fill="none" stroke="#fff" stroke-width="5"/><circle cx="30.714" cy="230" r="10.148" fill="#36c0ff" stroke="#fff" stroke-width="5" stroke-linejoin="round"/><circle r="10.148" cy="230" cx="130.714" fill="#36c0ff" stroke="#fff" stroke-width="5" stroke-linejoin="round"/><circle r="10.148" cy="230" cx="330.714" fill="#36c0ff" stroke="#fff" stroke-width="5" stroke-linejoin="round"/><circle r="10.148" cy="230" cx="530.714" fill="#36c0ff" stroke="#fff" stroke-width="5" stroke-linejoin="round"/><circle cx="630.714" cy="230" r="10.148" fill="#36c0ff" stroke="#fff" stroke-width="5" stroke-linejoin="round"/><circle r="10.148" cy="230" cx="730.714" fill="#36c0ff" stroke="#fff" stroke-width="5" stroke-linejoin="round"/><text style="line-height:125%" x="920.587" y="236.909" font-weight="400" font-size="40" font-family="sans-serif" letter-spacing="0" word-spacing="0" fill="#fff"><tspan x="920.587" y="236.909" style="-inkscape-font-specification:Roboto;text-align:center" font-size="27.5" font-family="Roboto" text-anchor="middle">master</tspan></text><path d="M229.305 330H529.32" fill="none" stroke="#fff" stroke-width="5"/><circle r="10.148" cy="330" cx="230.714" fill="#36c0ff" stroke="#fff" stroke-width="5" stroke-linejoin="round"/><circle r="10.148" cy="330" cx="430.714" fill="#36c0ff" stroke="#fff" stroke-width="5" stroke-linejoin="round"/><circle cx="530.714" cy="330" r="10.148" fill="#36c0ff" stroke="#fff" stroke-width="5" stroke-linejoin="round"/><path d="M428.305 130H729.33" fill="none" stroke="#fff" stroke-width="5"/><circle r="10.148" cy="130" cx="430.714" fill="#36c0ff" stroke="#fff" stroke-width="5" stroke-linejoin="round"/><circle cx="530.714" cy="130" r="10.148" fill="#36c0ff" stroke="#fff" stroke-width="5" stroke-linejoin="round"/><circle r="10.148" cy="130" cx="630.714" fill="#36c0ff" stroke="#fff" stroke-width="5" stroke-linejoin="round"/><circle cx="730.714" cy="130" r="10.148" fill="#36c0ff" stroke="#fff" stroke-width="5" stroke-linejoin="round"/><text style="line-height:125%" x="931.485" y="139.25" font-weight="400" font-size="40" font-family="sans-serif" letter-spacing="0" word-spacing="0" fill="#fff"><tspan x="931.485" y="139.25" style="-inkscape-font-specification:Roboto;text-align:center" font-size="27.5" font-family="Roboto" text-anchor="middle">feature-X</tspan></text><text y="341.25" x="935.485" style="line-height:125%" font-weight="400" font-size="40" font-family="sans-serif" letter-spacing="0" word-spacing="0" fill="#fff"><tspan style="-inkscape-font-specification:Roboto;text-align:center" y="341.25" x="935.485" font-size="27.5" font-family="Roboto" text-anchor="middle">feature-Y</tspan></text><text y="371.309" x="232.474" style="line-height:125%" font-weight="400" font-size="40" font-family="sans-serif" letter-spacing="0" word-spacing="0" fill="#fff"><tspan style="-inkscape-font-specification:monospace;text-align:center" y="371.309" x="232.474" font-size="27.5" font-family="monospace" text-anchor="middle">git branch</tspan></text><text y="210.56" x="629.766" style="line-height:125%" font-weight="400" font-size="40" font-family="sans-serif" letter-spacing="0" word-spacing="0" fill="#fff"><tspan style="-inkscape-font-specification:monospace;text-align:center" y="210.56" x="629.766" font-size="27.5" font-family="monospace" text-anchor="middle">git merge</tspan></text><circle r="10.148" cy="85.335" cx="30.305" fill="#36c0ff" stroke="#fff" stroke-width="5" stroke-linejoin="round"/><path d="M857.896 121.81a5.092 5.092 0 0 0-5.107-5.107 5.092 5.092 0 0 0-5.108 5.107c0 1.876 1.037 3.512 2.554 4.39v.758c-.04 1.317-.599 2.514-1.596 3.512-.998.997-2.195 1.556-3.512 1.596-2.115.04-3.79.399-5.108 1.157v-12.13c1.517-.879 2.554-2.515 2.554-4.39a5.092 5.092 0 0 0-5.107-5.108 5.092 5.092 0 0 0-5.108 5.108c0 1.875 1.037 3.511 2.554 4.39v16.759c-1.517.878-2.554 2.514-2.554 4.39a5.092 5.092 0 0 0 5.108 5.107 5.092 5.092 0 0 0 5.107-5.108 5.1 5.1 0 0 0-1.357-3.471c.24-.16 1.238-1.038 1.517-1.197.638-.28 1.436-.44 2.394-.44 2.674-.12 4.988-1.157 7.023-3.192 2.035-2.035 3.073-5.068 3.193-7.701h-.04c1.556-.918 2.593-2.554 2.593-4.43zm-20.43-8.18c1.675 0 3.072 1.397 3.072 3.073s-1.397 3.072-3.073 3.072c-1.675 0-3.072-1.396-3.072-3.072 0-1.676 1.397-3.073 3.072-3.073zm0 31.684c-1.676 0-3.073-1.397-3.073-3.073s1.397-3.072 3.072-3.072c1.676 0 3.073 1.396 3.073 3.072 0 1.676-1.397 3.073-3.073 3.073zm15.323-20.431c-1.676 0-3.073-1.397-3.073-3.073s1.397-3.072 3.073-3.072 3.072 1.396 3.072 3.072c0 1.676-1.396 3.073-3.072 3.073zm5.107 96.927a5.092 5.092 0 0 0-5.107-5.107 5.092 5.092 0 0 0-5.108 5.107c0 1.876 1.037 3.512 2.554 4.39v.758c-.04 1.317-.599 2.514-1.596 3.512-.998.997-2.195 1.556-3.512 1.596-2.115.04-3.79.399-5.108 1.157v-12.13c1.517-.879 2.554-2.515 2.554-4.39a5.092 5.092 0 0 0-5.107-5.108 5.092 5.092 0 0 0-5.108 5.108c0 1.875 1.037 3.511 2.554 4.39v16.759c-1.517.878-2.554 2.514-2.554 4.39a5.092 5.092 0 0 0 5.108 5.107 5.092 5.092 0 0 0 5.107-5.108 5.1 5.1 0 0 0-1.357-3.471c.24-.16 1.238-1.038 1.517-1.197.638-.28 1.436-.44 2.394-.44 2.674-.12 4.988-1.157 7.023-3.192 2.035-2.035 3.073-5.068 3.193-7.701h-.04c1.556-.918 2.593-2.554 2.593-4.43zm-20.43-8.18c1.675 0 3.072 1.397 3.072 3.073s-1.397 3.072-3.073 3.072c-1.675 0-3.072-1.396-3.072-3.072 0-1.676 1.397-3.073 3.072-3.073zm0 31.684c-1.676 0-3.073-1.397-3.073-3.073s1.397-3.072 3.072-3.072c1.676 0 3.073 1.396 3.073 3.072 0 1.676-1.397 3.073-3.073 3.073zm15.323-20.431c-1.676 0-3.073-1.397-3.073-3.073s1.397-3.072 3.073-3.072 3.072 1.396 3.072 3.072c0 1.676-1.396 3.073-3.072 3.073zm5.107 96.927a5.092 5.092 0 0 0-5.107-5.107 5.092 5.092 0 0 0-5.108 5.107c0 1.876 1.037 3.512 2.554 4.39v.758c-.04 1.317-.599 2.514-1.596 3.512-.998.997-2.195 1.556-3.512 1.596-2.115.04-3.79.399-5.108 1.157v-12.13c1.517-.879 2.554-2.515 2.554-4.39a5.092 5.092 0 0 0-5.107-5.108 5.092 5.092 0 0 0-5.108 5.108c0 1.875 1.037 3.511 2.554 4.39v16.759c-1.517.878-2.554 2.514-2.554 4.39a5.092 5.092 0 0 0 5.108 5.107 5.092 5.092 0 0 0 5.107-5.108 5.1 5.1 0 0 0-1.357-3.471c.24-.16 1.238-1.038 1.517-1.197.638-.28 1.436-.44 2.394-.44 2.674-.12 4.988-1.157 7.023-3.192 2.035-2.035 3.073-5.068 3.193-7.701h-.04c1.556-.918 2.593-2.554 2.593-4.43zm-20.43-8.18c1.675 0 3.072 1.397 3.072 3.073s-1.397 3.072-3.073 3.072c-1.675 0-3.072-1.396-3.072-3.072 0-1.676 1.397-3.073 3.072-3.073zm0 31.684c-1.676 0-3.073-1.397-3.073-3.073s1.397-3.072 3.072-3.072c1.676 0 3.073 1.396 3.073 3.072 0 1.676-1.397 3.073-3.073 3.073zm15.323-20.431c-1.676 0-3.073-1.397-3.073-3.073s1.397-3.072 3.073-3.072 3.072 1.396 3.072 3.072c0 1.676-1.396 3.073-3.072 3.073z" fill="#fff"/></g></svg>