<svg xmlns="http://www.w3.org/2000/svg" width="1000" height="400" viewBox="0 0 1000 400"><g fill="none" stroke="#fff" stroke-width="10"><path d="M769.685 184.32c53.32-11.364 42.812-69.038-5-63.572-47.812 5.466-48.32 74.934 5 63.571z"/><path d="M760.4 185.034c3.051 27.892-.934 66.093-5 86.428 9.653 23.73 13.797 58.063 37.142 82.857M755.4 272.89c-38.667 43.714-32.3 55.277-37.144 84.286"/><path d="M794.685 262.89c-15.511-15.51-22.95-43.634-33.571-62.856-14.29 19.372-47.269 9.41-62.143 24.285"/></g><g fill="none" stroke="#fff" stroke-width="10"><path d="M184.53 182.61c-52.605-10.648-44.954-61.894 5-63.571 49.956-1.677 47.606 74.22-5 63.571z"/><path d="M193.816 183.325c-3.052 27.893.934 66.094 5 86.428-15.582 25.096-24.691 60.446-37.142 82.857m37.142-81.428c29.267 20.053 31.566 53.612 37.143 84.286"/><path d="M155.96 250.468c15.51-15.512 26.521-32.92 37.142-52.143 14.29 19.372 24.411 43.697 39.286 58.571"/></g><g font-weight="400" font-size="40" font-family="sans-serif" letter-spacing="0" word-spacing="0"><text y="96.313" x="8.182" style="line-height:125%"><tspan style="-inkscape-font-specification:Roboto" y="96.313" x="8.182" font-family="Roboto" fill="#fff">myversion2.py</tspan></text><text y="386.884" x="4.468" style="line-height:125%"><tspan style="-inkscape-font-specification:Roboto" y="386.884" x="4.468" font-family="Roboto" fill="#fff">newnew.h</tspan></text><text y="172.027" x=".468" style="line-height:125%"><tspan style="-inkscape-font-specification:Roboto" y="172.027" x=".468" font-family="Roboto" fill="#fff">new3.c</tspan></text><text y="287.741" x="35.325" style="line-height:125%"><tspan style="-inkscape-font-specification:Roboto" y="287.741" x="35.325" font-family="Roboto" fill="#fff">algo.m</tspan></text><text y="92.083" x="756.5" style="line-height:125%"><tspan style="-inkscape-font-specification:Roboto" y="92.083" x="756.5" font-family="Roboto" fill="#fff">myversion.py</tspan></text><text y="382.083" x="717.928" style="line-height:125%"><tspan style="-inkscape-font-specification:Roboto" y="382.083" x="717.928" font-family="Roboto" fill="#fff">new_changed.h</tspan></text><text y="170.654" x="829.357" style="line-height:125%"><tspan style="-inkscape-font-specification:Roboto" y="170.654" x="829.357" font-family="Roboto" fill="#fff">new2.c</tspan></text><text y="296.369" x="773.643" style="line-height:125%"><tspan style="-inkscape-font-specification:Roboto" y="296.369" x="773.643" font-family="Roboto" fill="#fff">algo_fixed.m</tspan></text><text y="52.474" x="353.704" style="line-height:125%"><tspan style="-inkscape-font-specification:Roboto" y="52.474" x="353.704" font-family="Roboto" fill="#fff">1 week later...</tspan></text></g></svg>