<svg xmlns="http://www.w3.org/2000/svg" width="1000" height="400" viewBox="0 0 1000 400"><g fill="none" stroke="#fff" stroke-width="10"><path d="M184.53 182.61c-52.605-10.648-44.954-61.894 5-63.571 49.956-1.677 47.606 74.22-5 63.571z"/><path d="M193.816 183.325c-3.052 27.893.934 66.094 5 86.428-15.582 25.096-24.691 60.446-37.142 82.857m37.142-81.428c29.267 20.053 31.566 53.612 37.143 84.286"/><path d="M155.96 250.468c15.51-15.512 26.521-32.92 37.142-52.143 14.29 19.372 24.411 43.697 39.286 58.571"/></g><g font-weight="400" font-size="40" font-family="sans-serif" letter-spacing="0" word-spacing="0"><text y="149.09" x="35.939" style="line-height:125%"><tspan style="-inkscape-font-specification:Roboto" y="149.09" x="35.939" font-family="Roboto" fill="#fff">.py</tspan></text><text y="223.376" x="110.225" style="line-height:125%"><tspan style="-inkscape-font-specification:Roboto" y="223.376" x="110.225" font-family="Roboto" fill="#fff">.h</tspan></text><text y="230.519" x="30.225" style="line-height:125%"><tspan style="-inkscape-font-specification:Roboto" y="230.519" x="30.225" font-family="Roboto" fill="#fff">.c</tspan></text><text y="286.233" x="83.082" style="line-height:125%"><tspan style="-inkscape-font-specification:Roboto" y="286.233" x="83.082" font-family="Roboto" fill="#fff">.m</tspan></text></g></svg>